<svg width="63" height="63" viewBox="0 0 63 63" fill="none" xmlns="http://www.w3.org/2000/svg">
<path d="M58.3415 0.000440461H4.65845C4.055 -0.00788998 3.45581 0.102019 2.8951 0.32389C2.33439 0.545761 1.82314 0.875248 1.39056 1.29354C0.957967 1.71182 0.612512 2.21072 0.373918 2.76172C0.135324 3.31273 0.00826604 3.90506 0 4.50488V58.4951C0.00826604 59.0949 0.135324 59.6873 0.373918 60.2383C0.612512 60.7893 0.957967 61.2882 1.39056 61.7065C1.82314 62.1247 2.33439 62.4542 2.8951 62.6761C3.45581 62.898 4.055 63.0079 4.65845 62.9996H58.3415C58.945 63.0079 59.5442 62.898 60.1049 62.6761C60.6656 62.4542 61.1768 62.1247 61.6094 61.7065C62.042 61.2882 62.3875 60.7893 62.6261 60.2383C62.8647 59.6873 62.9917 59.0949 63 58.4951V4.50488C62.9917 3.90506 62.8647 3.31273 62.6261 2.76172C62.3875 2.21072 62.042 1.71182 61.6094 1.29354C61.1768 0.875248 60.6656 0.545761 60.1049 0.32389C59.5442 0.102019 58.945 -0.00788998 58.3415 0.000440461ZM19.1092 52.7307H9.60211V24.3811H19.1092V52.7307ZM14.3556 20.4122C13.0445 20.4122 11.7871 19.8944 10.8599 18.9729C9.93282 18.0514 9.41197 16.8015 9.41197 15.4982C9.41197 14.195 9.93282 12.9451 10.8599 12.0236C11.7871 11.102 13.0445 10.5843 14.3556 10.5843C15.0519 10.5058 15.7569 10.5744 16.4246 10.7855C17.0923 10.9967 17.7076 11.3456 18.2302 11.8095C18.7529 12.2734 19.171 12.8418 19.4573 13.4775C19.7436 14.1131 19.8916 14.8018 19.8916 15.4982C19.8916 16.1947 19.7436 16.8833 19.4573 17.519C19.171 18.1546 18.7529 18.723 18.2302 19.1869C17.7076 19.6508 17.0923 19.9998 16.4246 20.2109C15.7569 20.4221 15.0519 20.4906 14.3556 20.4122ZM53.3979 52.7307H43.8908V37.5164C43.8908 33.705 42.5282 31.2165 39.0739 31.2165C38.0049 31.2243 36.964 31.5576 36.0914 32.1715C35.2188 32.7854 34.5565 33.6504 34.1937 34.65C33.9457 35.3903 33.8382 36.17 33.8768 36.9494V52.6992H24.3697C24.3697 52.6992 24.3697 26.9326 24.3697 24.3496H33.8768V28.35C34.7404 26.8605 35.9965 25.6333 37.5098 24.8007C39.0232 23.9681 40.7363 23.5616 42.4648 23.6251C48.8028 23.6251 53.3979 27.6886 53.3979 36.4139V52.7307Z" fill="#2999C7"/>
</svg>
