<svg width="109" height="111" viewBox="0 0 109 111" fill="none" xmlns="http://www.w3.org/2000/svg">
<g filter="url(#filter0_d_72_69)">
<path d="M31.1136 48.7154C31.0647 48.941 31.0185 49.1511 30.9748 49.3447C30.2908 52.3868 29.2884 60.4062 28.9124 69.135M31.1136 48.7154C31.7428 45.8197 32.8279 40.3491 34.4141 34.2015M31.1136 48.7154C34.323 51.2879 37.2467 53.5549 39.3151 55.2221C40.6228 56.2761 42.7102 57.8154 45.3416 59.6512M31.1136 48.7154C28.9677 46.995 26.6937 45.1382 24.4625 43.2327M28.9124 69.135C28.2792 83.8407 29.4242 100.56 36.8666 98.8834C45.7972 96.8718 52.6885 82.8719 57.3775 67.6055M28.9124 69.135C34.7924 66.5219 40.7468 62.8348 45.3416 59.6512M28.9124 69.135C21.428 72.4612 14.0644 74.0475 9.77979 70.641C3.71412 65.8184 14.2845 53.1319 24.4625 43.2327M34.4141 34.2015C34.9197 32.242 35.4763 30.2137 36.0852 28.178M34.4141 34.2015C31.6586 36.5385 28.0854 39.709 24.4625 43.2327M34.4141 34.2015C36.9053 32.0887 38.7281 30.6572 39.3151 30.2619C39.408 30.1994 39.5404 30.1078 39.7097 29.9891M45.3416 59.6512C48.7894 57.2622 51.4716 55.1565 52.782 54.0008C54.1561 52.789 57.8465 49.9385 62.4725 46.1556M45.3416 59.6512C48.6495 61.959 52.8175 64.7353 57.3775 67.6055M24.4625 43.2327C14.6011 34.8105 5.57105 25.4371 12.0753 22.7052C17.3299 20.498 27.1134 23.8669 36.0852 28.178M36.0852 28.178C39.7014 16.0888 45.165 3.74061 52.782 4.00414C57.91 4.18156 60.9826 8.52856 62.5735 14.9418M36.0852 28.178C37.3132 28.768 38.5259 29.3757 39.7097 29.9891M39.7097 29.9891C42.111 28.3076 51.9625 21.2131 62.5735 14.9418M39.7097 29.9891C46.628 33.5741 52.5595 37.356 54.7715 38.9637C55.9509 39.8209 58.8923 41.7178 62.7538 44.3068M62.5735 14.9418C64.5457 22.8908 64.2415 34.0144 62.7538 44.3068M62.5735 14.9418C75.8703 7.08323 90.3596 0.517419 92.8767 7.51531C96.2123 16.7887 77 34.1705 63.8365 45.0349M62.7538 44.3068C62.6641 44.9263 62.5703 45.5429 62.4725 46.1556M62.7538 44.3068C63.1072 44.5439 63.4683 44.7866 63.8365 45.0349M63.8365 45.0349C63.3741 45.4167 62.9189 45.7904 62.4725 46.1556M63.8365 45.0349C77.7154 54.3941 101.627 71.6107 100.987 82.3959C100.406 92.2119 75.7197 79.1502 57.3775 67.6055M62.4725 46.1556C62.1218 48.3505 61.7192 50.4956 61.2754 52.5506C60.217 57.4528 58.9158 62.5972 57.3775 67.6055" stroke="#3594BB" stroke-width="7"/>
</g>
<g filter="url(#filter1_d_72_69)">
<path d="M43.9628 61.0956C51.1468 61.0956 56.9706 55.2859 56.9706 48.1193C56.9706 40.9527 51.1468 35.1431 43.9628 35.1431C36.7787 35.1431 30.955 40.9527 30.955 48.1193C30.955 55.2859 36.7787 61.0956 43.9628 61.0956Z" fill="#3594BB"/>
</g>
<g filter="url(#filter2_f_72_69)">
<path d="M36.8905 39.883C33.2943 42.8599 31.8404 48.2794 34.3655 44.3102C36.8905 40.341 41.252 38.28 42.2467 38.0511C43.2414 37.8221 40.4868 36.9061 36.8905 39.883Z" fill="white"/>
<path d="M36.8905 39.883C33.2943 42.8599 31.8404 48.2794 34.3655 44.3102C36.8905 40.341 41.252 38.28 42.2467 38.0511C43.2414 37.8221 40.4868 36.9061 36.8905 39.883Z" stroke="white"/>
</g>
<path d="M28.583 72.5452C30.5691 72.5452 32.1792 70.939 32.1792 68.9577C32.1792 66.9763 30.5691 65.3701 28.583 65.3701C26.5968 65.3701 24.9867 66.9763 24.9867 68.9577C24.9867 70.939 26.5968 72.5452 28.583 72.5452Z" fill="#3594BB"/>
<path d="M91.7091 8.57985C92.9768 8.57985 94.0046 7.55462 94.0046 6.28993C94.0046 5.02523 92.9768 4 91.7091 4C90.4413 4 89.4136 5.02523 89.4136 6.28993C89.4136 7.55462 90.4413 8.57985 91.7091 8.57985Z" fill="#3594BB"/>
<path d="M42.5854 13.1597C43.8532 13.1597 44.8809 12.1345 44.8809 10.8698C44.8809 9.60507 43.8532 8.57983 42.5854 8.57983C41.3176 8.57983 40.2899 9.60507 40.2899 10.8698C40.2899 12.1345 41.3176 13.1597 42.5854 13.1597Z" fill="#3594BB"/>
<path d="M19.4775 40.0281C20.7453 40.0281 21.773 39.0029 21.773 37.7382C21.773 36.4735 20.7453 35.4482 19.4775 35.4482C18.2097 35.4482 17.182 36.4735 17.182 37.7382C17.182 39.0029 18.2097 40.0281 19.4775 40.0281Z" fill="#3594BB"/>
<path d="M68.448 44.2264C68.448 46.7136 66.5296 48.7299 64.1631 48.7299C61.7966 48.7299 59.8782 46.7136 59.8782 44.2264C59.8782 41.7393 61.7966 39.7229 64.1631 39.7229C66.5296 39.7229 68.448 41.7393 68.448 44.2264Z" fill="#2999C7"/>
<path d="M28.0474 46.2874L47.4826 61.0955" stroke="#3594BB" stroke-width="7"/>
<defs>
<filter id="filter0_d_72_69" x="0.502319" y="0.499756" width="107.998" height="110" filterUnits="userSpaceOnUse" color-interpolation-filters="sRGB">
<feFlood flood-opacity="0" result="BackgroundImageFix"/>
<feColorMatrix in="SourceAlpha" type="matrix" values="0 0 0 0 0 0 0 0 0 0 0 0 0 0 0 0 0 0 127 0" result="hardAlpha"/>
<feOffset dy="4"/>
<feGaussianBlur stdDeviation="2"/>
<feComposite in2="hardAlpha" operator="out"/>
<feColorMatrix type="matrix" values="0 0 0 0 0 0 0 0 0 0 0 0 0 0 0 0 0 0 0.25 0"/>
<feBlend mode="normal" in2="BackgroundImageFix" result="effect1_dropShadow_72_69"/>
<feBlend mode="normal" in="SourceGraphic" in2="effect1_dropShadow_72_69" result="shape"/>
</filter>
<filter id="filter1_d_72_69" x="26.955" y="35.1431" width="34.0156" height="33.9524" filterUnits="userSpaceOnUse" color-interpolation-filters="sRGB">
<feFlood flood-opacity="0" result="BackgroundImageFix"/>
<feColorMatrix in="SourceAlpha" type="matrix" values="0 0 0 0 0 0 0 0 0 0 0 0 0 0 0 0 0 0 127 0" result="hardAlpha"/>
<feOffset dy="4"/>
<feGaussianBlur stdDeviation="2"/>
<feComposite in2="hardAlpha" operator="out"/>
<feColorMatrix type="matrix" values="0 0 0 0 0 0 0 0 0 0 0 0 0 0 0 0 0 0 0.25 0"/>
<feBlend mode="normal" in2="BackgroundImageFix" result="effect1_dropShadow_72_69"/>
<feBlend mode="normal" in="SourceGraphic" in2="effect1_dropShadow_72_69" result="shape"/>
</filter>
<filter id="filter2_f_72_69" x="30.5974" y="35.2383" width="14.3552" height="12.9734" filterUnits="userSpaceOnUse" color-interpolation-filters="sRGB">
<feFlood flood-opacity="0" result="BackgroundImageFix"/>
<feBlend mode="normal" in="SourceGraphic" in2="BackgroundImageFix" result="shape"/>
<feGaussianBlur stdDeviation="1" result="effect1_foregroundBlur_72_69"/>
</filter>
</defs>
</svg>
