<svg width="185" height="189" viewBox="0 0 185 189" fill="none" xmlns="http://www.w3.org/2000/svg">
<g filter="url(#filter0_d_49_880)">
<path d="M50.0022 85.4291C49.9132 85.84 49.8292 86.2225 49.75 86.575C48.5069 92.1148 46.6854 106.719 46.0021 122.614M50.0022 85.4291C51.1454 80.1559 53.1174 70.1936 55.9998 58.9986M50.0022 85.4291C55.8344 90.1137 61.1473 94.2421 64.906 97.2782C67.2823 99.1976 71.0755 102.001 75.8573 105.344M50.0022 85.4291C46.1025 82.2962 41.9703 78.9149 37.9158 75.4448M46.0021 122.614C44.8514 149.394 46.9321 179.841 60.4565 176.788C76.6852 173.124 89.2082 147.63 97.7289 119.829M46.0021 122.614C56.6873 117.856 67.5076 111.141 75.8573 105.344M46.0021 122.614C32.4015 128.671 19.0203 131.56 11.2342 125.357C0.211689 116.575 19.4202 93.4718 37.9158 75.4448M55.9998 58.9986C56.9186 55.4301 57.9301 51.7365 59.0366 48.0293M55.9998 58.9986C50.9925 63.2543 44.4993 69.0279 37.9158 75.4448M55.9998 58.9986C60.5269 55.151 63.8392 52.5441 64.906 51.8244C65.0748 51.7104 65.3154 51.5436 65.6229 51.3276M75.8573 105.344C82.1227 100.993 86.9968 97.1587 89.3781 95.0542C91.8751 92.8474 98.5813 87.6565 106.988 80.7675M75.8573 105.344C81.8685 109.546 89.4426 114.602 97.7289 119.829M37.9158 75.4448C19.9955 60.1075 3.58609 43.038 15.4056 38.0631C24.9544 34.0437 42.7329 40.1788 59.0366 48.0293M59.0366 48.0293C65.6079 26.0144 75.5364 3.52764 89.3781 4.00755C98.6967 4.33063 104.28 12.2467 107.171 23.9255M59.0366 48.0293C61.268 49.1038 63.4719 50.2106 65.6229 51.3276M65.6229 51.3276C69.9867 48.2654 87.8889 35.3459 107.171 23.9255M65.6229 51.3276C78.1949 57.856 88.9738 64.743 92.9933 67.6707C95.1366 69.2317 100.482 72.6862 107.499 77.4009M107.171 23.9255C110.755 38.4012 110.202 58.6578 107.499 77.4009M107.171 23.9255C131.334 9.61473 157.664 -2.34196 162.238 10.4016C168.3 27.2888 133.387 58.9421 109.466 78.7267M107.499 77.4009C107.336 78.529 107.165 79.6519 106.988 80.7675M107.499 77.4009C108.141 77.8326 108.797 78.2746 109.466 78.7267M109.466 78.7267C108.626 79.4219 107.799 80.1025 106.988 80.7675M109.466 78.7267C134.687 95.7703 178.139 127.123 176.977 146.763C175.92 164.639 131.061 140.852 97.7289 119.829M106.988 80.7675C106.35 84.7646 105.619 88.6709 104.812 92.4131C102.889 101.34 100.524 110.709 97.7289 119.829" stroke="#3594BB" stroke-width="7"/>
</g>
<g filter="url(#filter1_d_49_880)">
<path d="M73.3517 107.974C86.4065 107.974 96.9895 97.3942 96.9895 84.3434C96.9895 71.2927 86.4065 60.713 73.3517 60.713C60.2969 60.713 49.7139 71.2927 49.7139 84.3434C49.7139 97.3942 60.2969 107.974 73.3517 107.974Z" fill="#3594BB"/>
</g>
<g filter="url(#filter2_f_49_880)">
<path d="M60.4999 69.3448C53.9648 74.7659 51.3229 84.6351 55.9114 77.407C60.4999 70.1789 68.4256 66.4258 70.2332 66.0088C72.0408 65.5918 67.0351 63.9237 60.4999 69.3448Z" fill="white"/>
<path d="M60.4999 69.3448C53.9648 74.7659 51.3229 84.6351 55.9114 77.407C60.4999 70.1789 68.4256 66.4258 70.2332 66.0088C72.0408 65.5918 67.0351 63.9237 60.4999 69.3448Z" stroke="white"/>
</g>
<g filter="url(#filter3_di_49_880)">
<path d="M45.4035 128.824C49.0127 128.824 51.9386 125.899 51.9386 122.291C51.9386 118.683 49.0127 115.758 45.4035 115.758C41.7942 115.758 38.8683 118.683 38.8683 122.291C38.8683 125.899 41.7942 128.824 45.4035 128.824Z" fill="#3594BB"/>
</g>
<g filter="url(#filter4_di_49_880)">
<path d="M160.116 12.3402C162.42 12.3402 164.288 10.4731 164.288 8.17008C164.288 5.86701 162.42 4 160.116 4C157.813 4 155.945 5.86701 155.945 8.17008C155.945 10.4731 157.813 12.3402 160.116 12.3402Z" fill="#3594BB"/>
</g>
<g filter="url(#filter5_di_49_880)">
<path d="M70.8489 20.6804C73.1527 20.6804 75.0203 18.8134 75.0203 16.5103C75.0203 14.2072 73.1527 12.3402 70.8489 12.3402C68.5451 12.3402 66.6775 14.2072 66.6775 16.5103C66.6775 18.8134 68.5451 20.6804 70.8489 20.6804Z" fill="#3594BB"/>
</g>
<g filter="url(#filter6_di_49_880)">
<path d="M165.956 130.77C168.26 130.77 170.128 128.903 170.128 126.6C170.128 124.297 168.26 122.43 165.956 122.43C163.653 122.43 161.785 124.297 161.785 126.6C161.785 128.903 163.653 130.77 165.956 130.77Z" fill="#3594BB"/>
</g>
<g filter="url(#filter7_di_49_880)">
<path d="M28.8569 69.6092C31.1607 69.6092 33.0283 67.7422 33.0283 65.4391C33.0283 63.1361 31.1607 61.269 28.8569 61.269C26.5531 61.269 24.6855 63.1361 24.6855 65.4391C24.6855 67.7422 26.5531 69.6092 28.8569 69.6092Z" fill="#3594BB"/>
</g>
<g filter="url(#filter8_di_49_880)">
<path d="M117.846 77.2544C117.846 81.7836 114.36 85.4555 110.06 85.4555C105.759 85.4555 102.273 81.7836 102.273 77.2544C102.273 72.7251 105.759 69.0532 110.06 69.0532C114.36 69.0532 117.846 72.7251 117.846 77.2544Z" fill="#3594BB"/>
</g>
<path d="M44.4301 81.0074L79.7478 107.974" stroke="#6DA3B9" stroke-width="7"/>
<defs>
<filter id="filter0_d_49_880" x="0.502319" y="0.499756" width="183.998" height="188" filterUnits="userSpaceOnUse" color-interpolation-filters="sRGB">
<feFlood flood-opacity="0" result="BackgroundImageFix"/>
<feColorMatrix in="SourceAlpha" type="matrix" values="0 0 0 0 0 0 0 0 0 0 0 0 0 0 0 0 0 0 127 0" result="hardAlpha"/>
<feOffset dy="4"/>
<feGaussianBlur stdDeviation="2"/>
<feComposite in2="hardAlpha" operator="out"/>
<feColorMatrix type="matrix" values="0 0 0 0 0 0 0 0 0 0 0 0 0 0 0 0 0 0 0.25 0"/>
<feBlend mode="normal" in2="BackgroundImageFix" result="effect1_dropShadow_49_880"/>
<feBlend mode="normal" in="SourceGraphic" in2="effect1_dropShadow_49_880" result="shape"/>
</filter>
<filter id="filter1_d_49_880" x="45.7139" y="60.713" width="55.2756" height="55.2609" filterUnits="userSpaceOnUse" color-interpolation-filters="sRGB">
<feFlood flood-opacity="0" result="BackgroundImageFix"/>
<feColorMatrix in="SourceAlpha" type="matrix" values="0 0 0 0 0 0 0 0 0 0 0 0 0 0 0 0 0 0 127 0" result="hardAlpha"/>
<feOffset dy="4"/>
<feGaussianBlur stdDeviation="2"/>
<feComposite in2="hardAlpha" operator="out"/>
<feColorMatrix type="matrix" values="0 0 0 0 0 0 0 0 0 0 0 0 0 0 0 0 0 0 0.25 0"/>
<feBlend mode="normal" in2="BackgroundImageFix" result="effect1_dropShadow_49_880"/>
<feBlend mode="normal" in="SourceGraphic" in2="effect1_dropShadow_49_880" result="shape"/>
</filter>
<filter id="filter2_f_49_880" x="51.1071" y="62.9392" width="21.9999" height="19.5198" filterUnits="userSpaceOnUse" color-interpolation-filters="sRGB">
<feFlood flood-opacity="0" result="BackgroundImageFix"/>
<feBlend mode="normal" in="SourceGraphic" in2="BackgroundImageFix" result="shape"/>
<feGaussianBlur stdDeviation="1" result="effect1_foregroundBlur_49_880"/>
</filter>
<filter id="filter3_di_49_880" x="34.8683" y="111.758" width="19.0703" height="23.0663" filterUnits="userSpaceOnUse" color-interpolation-filters="sRGB">
<feFlood flood-opacity="0" result="BackgroundImageFix"/>
<feColorMatrix in="SourceAlpha" type="matrix" values="0 0 0 0 0 0 0 0 0 0 0 0 0 0 0 0 0 0 127 0" result="hardAlpha"/>
<feOffset dy="4"/>
<feGaussianBlur stdDeviation="1"/>
<feComposite in2="hardAlpha" operator="out"/>
<feColorMatrix type="matrix" values="0 0 0 0 0 0 0 0 0 0 0 0 0 0 0 0 0 0 0.25 0"/>
<feBlend mode="normal" in2="BackgroundImageFix" result="effect1_dropShadow_49_880"/>
<feBlend mode="normal" in="SourceGraphic" in2="effect1_dropShadow_49_880" result="shape"/>
<feColorMatrix in="SourceAlpha" type="matrix" values="0 0 0 0 0 0 0 0 0 0 0 0 0 0 0 0 0 0 127 0" result="hardAlpha"/>
<feOffset dx="-6" dy="-6"/>
<feGaussianBlur stdDeviation="2"/>
<feComposite in2="hardAlpha" operator="arithmetic" k2="-1" k3="1"/>
<feColorMatrix type="matrix" values="0 0 0 0 0 0 0 0 0 0 0 0 0 0 0 0 0 0 0.25 0"/>
<feBlend mode="normal" in2="shape" result="effect2_innerShadow_49_880"/>
</filter>
<filter id="filter4_di_49_880" x="151.945" y="0" width="14.3428" height="18.3402" filterUnits="userSpaceOnUse" color-interpolation-filters="sRGB">
<feFlood flood-opacity="0" result="BackgroundImageFix"/>
<feColorMatrix in="SourceAlpha" type="matrix" values="0 0 0 0 0 0 0 0 0 0 0 0 0 0 0 0 0 0 127 0" result="hardAlpha"/>
<feOffset dy="4"/>
<feGaussianBlur stdDeviation="1"/>
<feComposite in2="hardAlpha" operator="out"/>
<feColorMatrix type="matrix" values="0 0 0 0 0 0 0 0 0 0 0 0 0 0 0 0 0 0 0.25 0"/>
<feBlend mode="normal" in2="BackgroundImageFix" result="effect1_dropShadow_49_880"/>
<feBlend mode="normal" in="SourceGraphic" in2="effect1_dropShadow_49_880" result="shape"/>
<feColorMatrix in="SourceAlpha" type="matrix" values="0 0 0 0 0 0 0 0 0 0 0 0 0 0 0 0 0 0 127 0" result="hardAlpha"/>
<feOffset dx="-6" dy="-6"/>
<feGaussianBlur stdDeviation="2"/>
<feComposite in2="hardAlpha" operator="arithmetic" k2="-1" k3="1"/>
<feColorMatrix type="matrix" values="0 0 0 0 0 0 0 0 0 0 0 0 0 0 0 0 0 0 0.25 0"/>
<feBlend mode="normal" in2="shape" result="effect2_innerShadow_49_880"/>
</filter>
<filter id="filter5_di_49_880" x="62.6775" y="8.34021" width="14.3428" height="18.3402" filterUnits="userSpaceOnUse" color-interpolation-filters="sRGB">
<feFlood flood-opacity="0" result="BackgroundImageFix"/>
<feColorMatrix in="SourceAlpha" type="matrix" values="0 0 0 0 0 0 0 0 0 0 0 0 0 0 0 0 0 0 127 0" result="hardAlpha"/>
<feOffset dy="4"/>
<feGaussianBlur stdDeviation="1"/>
<feComposite in2="hardAlpha" operator="out"/>
<feColorMatrix type="matrix" values="0 0 0 0 0 0 0 0 0 0 0 0 0 0 0 0 0 0 0.25 0"/>
<feBlend mode="normal" in2="BackgroundImageFix" result="effect1_dropShadow_49_880"/>
<feBlend mode="normal" in="SourceGraphic" in2="effect1_dropShadow_49_880" result="shape"/>
<feColorMatrix in="SourceAlpha" type="matrix" values="0 0 0 0 0 0 0 0 0 0 0 0 0 0 0 0 0 0 127 0" result="hardAlpha"/>
<feOffset dx="-6" dy="-6"/>
<feGaussianBlur stdDeviation="2"/>
<feComposite in2="hardAlpha" operator="arithmetic" k2="-1" k3="1"/>
<feColorMatrix type="matrix" values="0 0 0 0 0 0 0 0 0 0 0 0 0 0 0 0 0 0 0.25 0"/>
<feBlend mode="normal" in2="shape" result="effect2_innerShadow_49_880"/>
</filter>
<filter id="filter6_di_49_880" x="157.785" y="118.43" width="14.3428" height="18.3401" filterUnits="userSpaceOnUse" color-interpolation-filters="sRGB">
<feFlood flood-opacity="0" result="BackgroundImageFix"/>
<feColorMatrix in="SourceAlpha" type="matrix" values="0 0 0 0 0 0 0 0 0 0 0 0 0 0 0 0 0 0 127 0" result="hardAlpha"/>
<feOffset dy="4"/>
<feGaussianBlur stdDeviation="1"/>
<feComposite in2="hardAlpha" operator="out"/>
<feColorMatrix type="matrix" values="0 0 0 0 0 0 0 0 0 0 0 0 0 0 0 0 0 0 0.25 0"/>
<feBlend mode="normal" in2="BackgroundImageFix" result="effect1_dropShadow_49_880"/>
<feBlend mode="normal" in="SourceGraphic" in2="effect1_dropShadow_49_880" result="shape"/>
<feColorMatrix in="SourceAlpha" type="matrix" values="0 0 0 0 0 0 0 0 0 0 0 0 0 0 0 0 0 0 127 0" result="hardAlpha"/>
<feOffset dx="-6" dy="-6"/>
<feGaussianBlur stdDeviation="2"/>
<feComposite in2="hardAlpha" operator="arithmetic" k2="-1" k3="1"/>
<feColorMatrix type="matrix" values="0 0 0 0 0 0 0 0 0 0 0 0 0 0 0 0 0 0 0.25 0"/>
<feBlend mode="normal" in2="shape" result="effect2_innerShadow_49_880"/>
</filter>
<filter id="filter7_di_49_880" x="20.6855" y="57.269" width="14.3428" height="18.3402" filterUnits="userSpaceOnUse" color-interpolation-filters="sRGB">
<feFlood flood-opacity="0" result="BackgroundImageFix"/>
<feColorMatrix in="SourceAlpha" type="matrix" values="0 0 0 0 0 0 0 0 0 0 0 0 0 0 0 0 0 0 127 0" result="hardAlpha"/>
<feOffset dy="4"/>
<feGaussianBlur stdDeviation="1"/>
<feComposite in2="hardAlpha" operator="out"/>
<feColorMatrix type="matrix" values="0 0 0 0 0 0 0 0 0 0 0 0 0 0 0 0 0 0 0.25 0"/>
<feBlend mode="normal" in2="BackgroundImageFix" result="effect1_dropShadow_49_880"/>
<feBlend mode="normal" in="SourceGraphic" in2="effect1_dropShadow_49_880" result="shape"/>
<feColorMatrix in="SourceAlpha" type="matrix" values="0 0 0 0 0 0 0 0 0 0 0 0 0 0 0 0 0 0 127 0" result="hardAlpha"/>
<feOffset dx="-6" dy="-6"/>
<feGaussianBlur stdDeviation="2"/>
<feComposite in2="hardAlpha" operator="arithmetic" k2="-1" k3="1"/>
<feColorMatrix type="matrix" values="0 0 0 0 0 0 0 0 0 0 0 0 0 0 0 0 0 0 0.25 0"/>
<feBlend mode="normal" in2="shape" result="effect2_innerShadow_49_880"/>
</filter>
<filter id="filter8_di_49_880" x="98.2732" y="65.0532" width="21.5731" height="26.4023" filterUnits="userSpaceOnUse" color-interpolation-filters="sRGB">
<feFlood flood-opacity="0" result="BackgroundImageFix"/>
<feColorMatrix in="SourceAlpha" type="matrix" values="0 0 0 0 0 0 0 0 0 0 0 0 0 0 0 0 0 0 127 0" result="hardAlpha"/>
<feOffset dy="4"/>
<feGaussianBlur stdDeviation="1"/>
<feComposite in2="hardAlpha" operator="out"/>
<feColorMatrix type="matrix" values="0 0 0 0 0 0 0 0 0 0 0 0 0 0 0 0 0 0 0.25 0"/>
<feBlend mode="normal" in2="BackgroundImageFix" result="effect1_dropShadow_49_880"/>
<feBlend mode="normal" in="SourceGraphic" in2="effect1_dropShadow_49_880" result="shape"/>
<feColorMatrix in="SourceAlpha" type="matrix" values="0 0 0 0 0 0 0 0 0 0 0 0 0 0 0 0 0 0 127 0" result="hardAlpha"/>
<feOffset dx="-6" dy="-6"/>
<feGaussianBlur stdDeviation="2"/>
<feComposite in2="hardAlpha" operator="arithmetic" k2="-1" k3="1"/>
<feColorMatrix type="matrix" values="0 0 0 0 0 0 0 0 0 0 0 0 0 0 0 0 0 0 0.25 0"/>
<feBlend mode="normal" in2="shape" result="effect2_innerShadow_49_880"/>
</filter>
</defs>
</svg>
