<svg width="646" height="152" viewBox="0 0 646 152" fill="none" xmlns="http://www.w3.org/2000/svg">
<path d="M94.1 94.3L80.6 54.4C79.6 51.8667 78.5333 48.9 77.4 45.5C76.2667 42.0333 75.1333 38.3 74 34.3C73 38.3667 71.9333 42.1333 70.8 45.6C69.6667 49.0667 68.6 52.0667 67.6 54.6L54.2 94.3H94.1ZM147.8 150H121.6C118.667 150 116.3 149.333 114.5 148C112.7 146.6 111.333 144.833 110.4 142.7L101.8 117.3H46.4L37.8 142.7C37.0667 144.567 35.7333 146.267 33.8 147.8C31.9333 149.267 29.6 150 26.8 150H0.4L56.8 4.3H91.4L147.8 150ZM186.688 0.29999V150H155.688V0.29999H186.688ZM272.141 85.7C272.141 83.2333 271.807 80.8333 271.141 78.5C270.541 76.1667 269.507 74.1 268.041 72.3C266.641 70.4333 264.774 68.9333 262.441 67.8C260.107 66.6667 257.274 66.1 253.941 66.1C248.074 66.1 243.474 67.8 240.141 71.2C236.807 74.5333 234.607 79.3667 233.541 85.7H272.141ZM233.141 103.7C234.141 112.367 236.774 118.667 241.041 122.6C245.307 126.467 250.807 128.4 257.541 128.4C261.141 128.4 264.241 127.967 266.841 127.1C269.441 126.233 271.741 125.267 273.741 124.2C275.807 123.133 277.674 122.167 279.341 121.3C281.074 120.433 282.874 120 284.741 120C287.207 120 289.074 120.9 290.341 122.7L299.341 133.8C296.141 137.467 292.674 140.467 288.941 142.8C285.274 145.067 281.474 146.867 277.541 148.2C273.674 149.467 269.774 150.333 265.841 150.8C261.974 151.333 258.274 151.6 254.741 151.6C247.474 151.6 240.641 150.433 234.241 148.1C227.907 145.7 222.341 142.167 217.541 137.5C212.807 132.833 209.041 127.033 206.241 120.1C203.507 113.167 202.141 105.1 202.141 95.9C202.141 88.9667 203.307 82.4 205.641 76.2C208.041 70 211.441 64.5667 215.841 59.9C220.307 55.2333 225.674 51.5333 231.941 48.8C238.274 46.0667 245.407 44.7 253.341 44.7C260.207 44.7 266.474 45.7667 272.141 47.9C277.874 50.0333 282.774 53.1333 286.841 57.2C290.974 61.2667 294.174 66.2667 296.441 72.2C298.774 78.0667 299.941 84.7333 299.941 92.2C299.941 94.5333 299.841 96.4333 299.641 97.9C299.441 99.3667 299.074 100.533 298.541 101.4C298.007 102.267 297.274 102.867 296.341 103.2C295.474 103.533 294.341 103.7 292.941 103.7H233.141ZM344.453 62.3C347.653 56.7 351.32 52.3 355.453 49.1C359.653 45.9 364.453 44.3 369.853 44.3C374.52 44.3 378.32 45.4 381.253 47.6L379.253 70.4C378.92 71.8667 378.353 72.8667 377.553 73.4C376.82 73.9333 375.786 74.2 374.453 74.2C373.92 74.2 373.22 74.1667 372.353 74.1C371.486 74.0333 370.586 73.9667 369.653 73.9C368.72 73.7667 367.753 73.6667 366.753 73.6C365.82 73.4667 364.953 73.4 364.153 73.4C359.62 73.4 355.986 74.6 353.253 77C350.586 79.4 348.32 82.7333 346.453 87V150H315.453V46.3H333.853C335.386 46.3 336.653 46.4333 337.653 46.7C338.72 46.9667 339.586 47.4 340.253 48C340.986 48.5333 341.52 49.2667 341.853 50.2C342.253 51.1333 342.586 52.2667 342.853 53.6L344.453 62.3ZM428.92 151.6C423.987 151.6 419.62 150.9 415.82 149.5C412.087 148.033 408.92 146 406.32 143.4C403.787 140.733 401.854 137.533 400.52 133.8C399.187 130.067 398.52 125.9 398.52 121.3V67.7H389.72C388.12 67.7 386.754 67.2 385.62 66.2C384.487 65.1333 383.92 63.6 383.92 61.6V49.5L400.42 46.3L406.52 21C407.32 17.8 409.587 16.2 413.32 16.2H429.52V46.5H455.22V67.7H429.52V119.2C429.52 121.6 430.087 123.6 431.22 125.2C432.42 126.733 434.12 127.5 436.32 127.5C437.454 127.5 438.387 127.4 439.12 127.2C439.92 126.933 440.587 126.667 441.12 126.4C441.72 126.067 442.254 125.8 442.72 125.6C443.254 125.333 443.854 125.2 444.52 125.2C445.454 125.2 446.187 125.433 446.72 125.9C447.32 126.3 447.92 126.967 448.52 127.9L457.92 142.6C453.92 145.6 449.42 147.867 444.42 149.4C439.42 150.867 434.254 151.6 428.92 151.6ZM522.078 107.8C515.878 108.067 510.778 108.6 506.778 109.4C502.778 110.2 499.611 111.2 497.278 112.4C494.945 113.6 493.311 114.967 492.378 116.5C491.511 118.033 491.078 119.7 491.078 121.5C491.078 125.033 492.045 127.533 493.978 129C495.911 130.4 498.745 131.1 502.478 131.1C506.478 131.1 509.978 130.4 512.978 129C515.978 127.6 519.011 125.333 522.078 122.2V107.8ZM466.278 60.7C472.545 55.1667 479.478 51.0667 487.078 48.4C494.745 45.6667 502.945 44.3 511.678 44.3C517.945 44.3 523.578 45.3333 528.578 47.4C533.645 49.4 537.911 52.2333 541.378 55.9C544.911 59.5 547.611 63.8 549.478 68.8C551.345 73.8 552.278 79.2667 552.278 85.2V150H538.078C535.145 150 532.911 149.6 531.378 148.8C529.911 148 528.678 146.333 527.678 143.8L525.478 138.1C522.878 140.3 520.378 142.233 517.978 143.9C515.578 145.567 513.078 147 510.478 148.2C507.945 149.333 505.211 150.167 502.278 150.7C499.411 151.3 496.211 151.6 492.678 151.6C487.945 151.6 483.645 151 479.778 149.8C475.911 148.533 472.611 146.7 469.878 144.3C467.211 141.9 465.145 138.933 463.678 135.4C462.211 131.8 461.478 127.667 461.478 123C461.478 119.267 462.411 115.5 464.278 111.7C466.145 107.833 469.378 104.333 473.978 101.2C478.578 98 484.778 95.3333 492.578 93.2C500.378 91.0667 510.211 89.8667 522.078 89.6V85.2C522.078 79.1333 520.811 74.7667 518.278 72.1C515.811 69.3667 512.278 68 507.678 68C504.011 68 501.011 68.4 498.678 69.2C496.345 70 494.245 70.9 492.378 71.9C490.578 72.9 488.811 73.8 487.078 74.6C485.345 75.4 483.278 75.8 480.878 75.8C478.745 75.8 476.945 75.2667 475.478 74.2C474.011 73.1333 472.811 71.8667 471.878 70.4L466.278 60.7ZM637.994 69C637.194 70.2667 636.327 71.1667 635.394 71.7C634.527 72.2333 633.394 72.5 631.994 72.5C630.527 72.5 629.06 72.2 627.594 71.6C626.127 70.9333 624.527 70.2333 622.794 69.5C621.127 68.7667 619.227 68.1 617.094 67.5C614.96 66.8333 612.527 66.5 609.794 66.5C605.86 66.5 602.827 67.2667 600.694 68.8C598.627 70.2667 597.594 72.3333 597.594 75C597.594 76.9333 598.26 78.5333 599.594 79.8C600.994 81.0667 602.827 82.2 605.094 83.2C607.36 84.1333 609.927 85.0333 612.794 85.9C615.66 86.7667 618.594 87.7333 621.594 88.8C624.594 89.8667 627.527 91.1333 630.394 92.6C633.26 94 635.827 95.7667 638.094 97.9C640.36 99.9667 642.16 102.5 643.494 105.5C644.894 108.5 645.594 112.1 645.594 116.3C645.594 121.433 644.66 126.167 642.794 130.5C640.927 134.833 638.127 138.567 634.394 141.7C630.727 144.833 626.16 147.267 620.694 149C615.294 150.733 609.06 151.6 601.994 151.6C598.46 151.6 594.927 151.267 591.394 150.6C587.86 149.933 584.427 149.033 581.094 147.9C577.827 146.767 574.794 145.433 571.994 143.9C569.194 142.3 566.794 140.6 564.794 138.8L571.994 127.4C572.794 126.067 573.794 125.033 574.994 124.3C576.26 123.5 577.86 123.1 579.794 123.1C581.594 123.1 583.194 123.5 584.594 124.3C586.06 125.1 587.627 125.967 589.294 126.9C590.96 127.833 592.894 128.7 595.094 129.5C597.36 130.3 600.194 130.7 603.594 130.7C605.994 130.7 608.027 130.467 609.694 130C611.36 129.467 612.694 128.767 613.694 127.9C614.694 127.033 615.427 126.067 615.894 125C616.36 123.933 616.594 122.833 616.594 121.7C616.594 119.633 615.894 117.933 614.494 116.6C613.094 115.267 611.26 114.133 608.994 113.2C606.727 112.2 604.127 111.3 601.194 110.5C598.327 109.633 595.394 108.667 592.394 107.6C589.394 106.533 586.427 105.267 583.494 103.8C580.627 102.267 578.06 100.367 575.794 98.1C573.527 95.7667 571.694 92.9333 570.294 89.6C568.894 86.2667 568.194 82.2333 568.194 77.5C568.194 73.1 569.027 68.9333 570.694 65C572.427 61 574.994 57.5 578.394 54.5C581.794 51.5 586.06 49.1333 591.194 47.4C596.327 45.6 602.327 44.7 609.194 44.7C612.927 44.7 616.527 45.0333 619.994 45.7C623.527 46.3667 626.827 47.3 629.894 48.5C632.96 49.7 635.76 51.1333 638.294 52.8C640.827 54.4 643.06 56.1667 644.994 58.1L637.994 69Z" fill="url(#paint0_linear_2133_2002)" fill-opacity="0.4"/>
<defs>
<linearGradient id="paint0_linear_2133_2002" x1="628.412" y1="-47" x2="632.23" y2="322.049" gradientUnits="userSpaceOnUse">
<stop offset="0.215" stop-color="white"/>
<stop offset="0.2151" stop-color="#FEFEFE" stop-opacity="0.970484"/>
<stop offset="0.265" stop-color="white"/>
<stop offset="0.685"/>
<stop offset="0.72" stop-color="#040404"/>
<stop offset="1" stop-color="#D9D9D9" stop-opacity="0"/>
</linearGradient>
</defs>
</svg>
