<svg width="1136" height="153" viewBox="0 0 1136 153" fill="none" xmlns="http://www.w3.org/2000/svg">
<path d="M34.1 31.3V68.2H83.9V94.3H34.1V151H0.1V5.3H93.9V31.3H34.1ZM196.141 47.3V151H176.941C173.074 151 170.541 149.267 169.341 145.8L167.541 139.8C165.541 141.733 163.474 143.5 161.341 145.1C159.207 146.633 156.907 147.967 154.441 149.1C152.041 150.167 149.407 151 146.541 151.6C143.741 152.267 140.674 152.6 137.341 152.6C131.674 152.6 126.641 151.633 122.241 149.7C117.907 147.7 114.241 144.933 111.241 141.4C108.241 137.867 105.974 133.7 104.441 128.9C102.907 124.1 102.141 118.833 102.141 113.1V47.3H133.141V113.1C133.141 118.233 134.307 122.2 136.641 125C138.974 127.8 142.407 129.2 146.941 129.2C150.341 129.2 153.507 128.5 156.441 127.1C159.441 125.633 162.341 123.667 165.141 121.2V47.3H196.141ZM245.803 58.5C247.803 56.6333 249.87 54.9 252.003 53.3C254.136 51.7 256.403 50.3667 258.803 49.3C261.27 48.1667 263.903 47.3 266.703 46.7C269.57 46.0333 272.67 45.7 276.003 45.7C281.67 45.7 286.67 46.7 291.003 48.7C295.403 50.6333 299.103 53.3667 302.103 56.9C305.103 60.3667 307.37 64.5333 308.903 69.4C310.436 74.2 311.203 79.4333 311.203 85.1V151H280.203V85.1C280.203 80.0333 279.036 76.1 276.703 73.3C274.37 70.4333 270.936 69 266.403 69C263.003 69 259.803 69.7333 256.803 71.2C253.87 72.6 251.003 74.5333 248.203 77V151H217.203V47.3H236.403C240.27 47.3 242.803 49.0333 244.003 52.5L245.803 58.5ZM407.466 71.9C406.532 73.0333 405.632 73.9333 404.766 74.6C403.899 75.2667 402.666 75.6 401.066 75.6C399.532 75.6 398.132 75.2333 396.866 74.5C395.666 73.7667 394.299 72.9667 392.766 72.1C391.232 71.1667 389.432 70.3333 387.366 69.6C385.299 68.8667 382.732 68.5 379.666 68.5C375.866 68.5 372.566 69.2 369.766 70.6C367.032 72 364.766 74 362.966 76.6C361.166 79.2 359.832 82.4 358.966 86.2C358.099 89.9333 357.666 94.1667 357.666 98.9C357.666 108.833 359.566 116.467 363.366 121.8C367.232 127.133 372.532 129.8 379.266 129.8C382.866 129.8 385.699 129.367 387.766 128.5C389.899 127.567 391.699 126.567 393.166 125.5C394.632 124.367 395.966 123.333 397.166 122.4C398.432 121.467 399.999 121 401.866 121C404.332 121 406.199 121.9 407.466 123.7L416.466 134.8C413.266 138.467 409.899 141.467 406.366 143.8C402.832 146.067 399.199 147.867 395.466 149.2C391.799 150.467 388.099 151.333 384.366 151.8C380.632 152.333 376.999 152.6 373.466 152.6C367.132 152.6 361.066 151.4 355.266 149C349.532 146.6 344.466 143.133 340.066 138.6C335.732 134 332.266 128.367 329.666 121.7C327.132 115.033 325.866 107.433 325.866 98.9C325.866 91.4333 326.966 84.4667 329.166 78C331.432 71.4667 334.732 65.8333 339.066 61.1C343.466 56.3 348.866 52.5333 355.266 49.8C361.732 47.0667 369.199 45.7 377.666 45.7C385.799 45.7 392.932 47 399.066 49.6C405.199 52.2 410.732 56 415.666 61L407.466 71.9ZM460.231 47.3V151H429.231V47.3H460.231ZM463.431 18.9C463.431 21.3667 462.931 23.7 461.931 25.9C460.931 28.0333 459.565 29.9333 457.831 31.6C456.098 33.2 454.065 34.5 451.731 35.5C449.465 36.4333 447.031 36.9 444.431 36.9C441.898 36.9 439.531 36.4333 437.331 35.5C435.131 34.5 433.165 33.2 431.431 31.6C429.765 29.9333 428.431 28.0333 427.431 25.9C426.498 23.7 426.031 21.3667 426.031 18.9C426.031 16.3667 426.498 14 427.431 11.8C428.431 9.59999 429.765 7.66666 431.431 6C433.165 4.33333 435.131 3.03333 437.331 2.09999C439.531 1.16666 441.898 0.699998 444.431 0.699998C447.031 0.699998 449.465 1.16666 451.731 2.09999C454.065 3.03333 456.098 4.33333 457.831 6C459.565 7.66666 460.931 9.59999 461.931 11.8C462.931 14 463.431 16.3667 463.431 18.9ZM529.652 45.7C537.518 45.7 544.685 46.9333 551.152 49.4C557.618 51.8667 563.152 55.4 567.752 60C572.418 64.6 576.018 70.2 578.552 76.8C581.152 83.3333 582.452 90.7 582.452 98.9C582.452 107.167 581.152 114.633 578.552 121.3C576.018 127.9 572.418 133.533 567.752 138.2C563.152 142.8 557.618 146.367 551.152 148.9C544.685 151.367 537.518 152.6 529.652 152.6C521.718 152.6 514.485 151.367 507.952 148.9C501.485 146.367 495.885 142.8 491.152 138.2C486.485 133.533 482.852 127.9 480.252 121.3C477.718 114.633 476.452 107.167 476.452 98.9C476.452 90.7 477.718 83.3333 480.252 76.8C482.852 70.2 486.485 64.6 491.152 60C495.885 55.4 501.485 51.8667 507.952 49.4C514.485 46.9333 521.718 45.7 529.652 45.7ZM529.652 129.6C536.785 129.6 542.018 127.1 545.352 122.1C548.752 117.033 550.452 109.367 550.452 99.1C550.452 88.8333 548.752 81.2 545.352 76.2C542.018 71.2 536.785 68.7 529.652 68.7C522.318 68.7 516.952 71.2 513.552 76.2C510.152 81.2 508.452 88.8333 508.452 99.1C508.452 109.367 510.152 117.033 513.552 122.1C516.952 127.1 522.318 129.6 529.652 129.6ZM626.663 58.5C628.663 56.6333 630.729 54.9 632.863 53.3C634.996 51.7 637.263 50.3667 639.663 49.3C642.129 48.1667 644.763 47.3 647.563 46.7C650.429 46.0333 653.529 45.7 656.863 45.7C662.529 45.7 667.529 46.7 671.863 48.7C676.263 50.6333 679.963 53.3667 682.963 56.9C685.963 60.3667 688.229 64.5333 689.763 69.4C691.296 74.2 692.063 79.4333 692.063 85.1V151H661.063V85.1C661.063 80.0333 659.896 76.1 657.563 73.3C655.229 70.4333 651.796 69 647.263 69C643.863 69 640.663 69.7333 637.663 71.2C634.729 72.6 631.863 74.5333 629.063 77V151H598.063V47.3H617.263C621.129 47.3 623.663 49.0333 624.863 52.5L626.663 58.5ZM765.625 108.8C759.425 109.067 754.325 109.6 750.325 110.4C746.325 111.2 743.158 112.2 740.825 113.4C738.492 114.6 736.858 115.967 735.925 117.5C735.058 119.033 734.625 120.7 734.625 122.5C734.625 126.033 735.592 128.533 737.525 130C739.458 131.4 742.292 132.1 746.025 132.1C750.025 132.1 753.525 131.4 756.525 130C759.525 128.6 762.558 126.333 765.625 123.2V108.8ZM709.825 61.7C716.092 56.1667 723.025 52.0667 730.625 49.4C738.292 46.6667 746.492 45.3 755.225 45.3C761.492 45.3 767.125 46.3333 772.125 48.4C777.192 50.4 781.458 53.2333 784.925 56.9C788.458 60.5 791.158 64.8 793.025 69.8C794.892 74.8 795.825 80.2667 795.825 86.2V151H781.625C778.692 151 776.458 150.6 774.925 149.8C773.458 149 772.225 147.333 771.225 144.8L769.025 139.1C766.425 141.3 763.925 143.233 761.525 144.9C759.125 146.567 756.625 148 754.025 149.2C751.492 150.333 748.758 151.167 745.825 151.7C742.958 152.3 739.758 152.6 736.225 152.6C731.492 152.6 727.192 152 723.325 150.8C719.458 149.533 716.158 147.7 713.425 145.3C710.758 142.9 708.692 139.933 707.225 136.4C705.758 132.8 705.025 128.667 705.025 124C705.025 120.267 705.958 116.5 707.825 112.7C709.692 108.833 712.925 105.333 717.525 102.2C722.125 99 728.325 96.3333 736.125 94.2C743.925 92.0667 753.758 90.8667 765.625 90.6V86.2C765.625 80.1333 764.358 75.7667 761.825 73.1C759.358 70.3667 755.825 69 751.225 69C747.558 69 744.558 69.4 742.225 70.2C739.892 71 737.792 71.9 735.925 72.9C734.125 73.9 732.358 74.8 730.625 75.6C728.892 76.4 726.825 76.8 724.425 76.8C722.292 76.8 720.492 76.2667 719.025 75.2C717.558 74.1333 716.358 72.8667 715.425 71.4L709.825 61.7ZM792.325 3.7L766.325 30C764.792 31.5333 763.325 32.6333 761.925 33.3C760.525 33.9 758.658 34.2 756.325 34.2H737.725L751.325 9.69999C752.458 7.76666 753.792 6.3 755.325 5.3C756.858 4.23333 759.192 3.7 762.325 3.7H792.325ZM844.641 63.3C847.841 57.7 851.507 53.3 855.641 50.1C859.841 46.9 864.641 45.3 870.041 45.3C874.707 45.3 878.507 46.4 881.441 48.6L879.441 71.4C879.107 72.8667 878.541 73.8667 877.741 74.4C877.007 74.9333 875.974 75.2 874.641 75.2C874.107 75.2 873.407 75.1667 872.541 75.1C871.674 75.0333 870.774 74.9667 869.841 74.9C868.907 74.7667 867.941 74.6667 866.941 74.6C866.007 74.4667 865.141 74.4 864.341 74.4C859.807 74.4 856.174 75.6 853.441 78C850.774 80.4 848.507 83.7333 846.641 88V151H815.641V47.3H834.041C835.574 47.3 836.841 47.4333 837.841 47.7C838.907 47.9667 839.774 48.4 840.441 49C841.174 49.5333 841.707 50.2667 842.041 51.2C842.441 52.1333 842.774 53.2667 843.041 54.6L844.641 63.3ZM923.708 47.3V151H892.708V47.3H923.708ZM926.908 18.9C926.908 21.3667 926.408 23.7 925.408 25.9C924.408 28.0333 923.041 29.9333 921.308 31.6C919.574 33.2 917.541 34.5 915.208 35.5C912.941 36.4333 910.508 36.9 907.908 36.9C905.374 36.9 903.008 36.4333 900.808 35.5C898.608 34.5 896.641 33.2 894.908 31.6C893.241 29.9333 891.908 28.0333 890.908 25.9C889.974 23.7 889.508 21.3667 889.508 18.9C889.508 16.3667 889.974 14 890.908 11.8C891.908 9.59999 893.241 7.66666 894.908 6C896.641 4.33333 898.608 3.03333 900.808 2.09999C903.008 1.16666 905.374 0.699998 907.908 0.699998C910.508 0.699998 912.941 1.16666 915.208 2.09999C917.541 3.03333 919.574 4.33333 921.308 6C923.041 7.66666 924.408 9.59999 925.408 11.8C926.408 14 926.908 16.3667 926.908 18.9ZM993.128 45.7C1000.99 45.7 1008.16 46.9333 1014.63 49.4C1021.09 51.8667 1026.63 55.4 1031.23 60C1035.89 64.6 1039.49 70.2 1042.03 76.8C1044.63 83.3333 1045.93 90.7 1045.93 98.9C1045.93 107.167 1044.63 114.633 1042.03 121.3C1039.49 127.9 1035.89 133.533 1031.23 138.2C1026.63 142.8 1021.09 146.367 1014.63 148.9C1008.16 151.367 1000.99 152.6 993.128 152.6C985.195 152.6 977.961 151.367 971.428 148.9C964.961 146.367 959.361 142.8 954.628 138.2C949.961 133.533 946.328 127.9 943.728 121.3C941.195 114.633 939.928 107.167 939.928 98.9C939.928 90.7 941.195 83.3333 943.728 76.8C946.328 70.2 949.961 64.6 954.628 60C959.361 55.4 964.961 51.8667 971.428 49.4C977.961 46.9333 985.195 45.7 993.128 45.7ZM993.128 129.6C1000.26 129.6 1005.49 127.1 1008.83 122.1C1012.23 117.033 1013.93 109.367 1013.93 99.1C1013.93 88.8333 1012.23 81.2 1008.83 76.2C1005.49 71.2 1000.26 68.7 993.128 68.7C985.795 68.7 980.428 71.2 977.028 76.2C973.628 81.2 971.928 88.8333 971.928 99.1C971.928 109.367 973.628 117.033 977.028 122.1C980.428 127.1 985.795 129.6 993.128 129.6ZM1127.44 70C1126.64 71.2667 1125.77 72.1667 1124.84 72.7C1123.97 73.2333 1122.84 73.5 1121.44 73.5C1119.97 73.5 1118.51 73.2 1117.04 72.6C1115.57 71.9333 1113.97 71.2333 1112.24 70.5C1110.57 69.7667 1108.67 69.1 1106.54 68.5C1104.41 67.8333 1101.97 67.5 1099.24 67.5C1095.31 67.5 1092.27 68.2667 1090.14 69.8C1088.07 71.2667 1087.04 73.3333 1087.04 76C1087.04 77.9333 1087.71 79.5333 1089.04 80.8C1090.44 82.0667 1092.27 83.2 1094.54 84.2C1096.81 85.1333 1099.37 86.0333 1102.24 86.9C1105.11 87.7667 1108.04 88.7333 1111.04 89.8C1114.04 90.8667 1116.97 92.1333 1119.84 93.6C1122.71 95 1125.27 96.7667 1127.54 98.9C1129.81 100.967 1131.61 103.5 1132.94 106.5C1134.34 109.5 1135.04 113.1 1135.04 117.3C1135.04 122.433 1134.11 127.167 1132.24 131.5C1130.37 135.833 1127.57 139.567 1123.84 142.7C1120.17 145.833 1115.61 148.267 1110.14 150C1104.74 151.733 1098.51 152.6 1091.44 152.6C1087.91 152.6 1084.37 152.267 1080.84 151.6C1077.31 150.933 1073.87 150.033 1070.54 148.9C1067.27 147.767 1064.24 146.433 1061.44 144.9C1058.64 143.3 1056.24 141.6 1054.24 139.8L1061.44 128.4C1062.24 127.067 1063.24 126.033 1064.44 125.3C1065.71 124.5 1067.31 124.1 1069.24 124.1C1071.04 124.1 1072.64 124.5 1074.04 125.3C1075.51 126.1 1077.07 126.967 1078.74 127.9C1080.41 128.833 1082.34 129.7 1084.54 130.5C1086.81 131.3 1089.64 131.7 1093.04 131.7C1095.44 131.7 1097.47 131.467 1099.14 131C1100.81 130.467 1102.14 129.767 1103.14 128.9C1104.14 128.033 1104.87 127.067 1105.34 126C1105.81 124.933 1106.04 123.833 1106.04 122.7C1106.04 120.633 1105.34 118.933 1103.94 117.6C1102.54 116.267 1100.71 115.133 1098.44 114.2C1096.17 113.2 1093.57 112.3 1090.64 111.5C1087.77 110.633 1084.84 109.667 1081.84 108.6C1078.84 107.533 1075.87 106.267 1072.94 104.8C1070.07 103.267 1067.51 101.367 1065.24 99.1C1062.97 96.7667 1061.14 93.9333 1059.74 90.6C1058.34 87.2667 1057.64 83.2333 1057.64 78.5C1057.64 74.1 1058.47 69.9333 1060.14 66C1061.87 62 1064.44 58.5 1067.84 55.5C1071.24 52.5 1075.51 50.1333 1080.64 48.4C1085.77 46.6 1091.77 45.7 1098.64 45.7C1102.37 45.7 1105.97 46.0333 1109.44 46.7C1112.97 47.3667 1116.27 48.3 1119.34 49.5C1122.41 50.7 1125.21 52.1333 1127.74 53.8C1130.27 55.4 1132.51 57.1667 1134.44 59.1L1127.44 70Z" fill="url(#paint0_linear_2121_2196)" fill-opacity="0.4"/>
<defs>
<linearGradient id="paint0_linear_2121_2196" x1="611.412" y1="-46" x2="615.23" y2="323.049" gradientUnits="userSpaceOnUse">
<stop/>
<stop offset="0.265157" stop-color="#040404"/>
<stop offset="0.514373" stop-color="white"/>
<stop offset="0.874427" stop-color="#D9D9D9" stop-opacity="0"/>
</linearGradient>
</defs>
</svg>
