<svg width="116" height="118" viewBox="0 0 116 118" fill="none" xmlns="http://www.w3.org/2000/svg">
<g filter="url(#filter0_d_2150_2078)">
<path d="M32.8534 52.0102C32.8007 52.2525 32.751 52.478 32.7041 52.6858C31.9686 55.9521 30.8908 64.5625 30.4865 73.9344M32.8534 52.0102C33.5298 48.9012 34.6967 43.0274 36.4023 36.4269M32.8534 52.0102C36.3044 54.7723 39.4481 57.2063 41.6722 58.9964C43.0783 60.128 45.3228 61.7807 48.1522 63.7518M32.8534 52.0102C30.5459 50.1631 28.1008 48.1695 25.7016 46.1235M30.4865 73.9344C29.8056 89.7237 31.0367 107.675 39.0394 105.875C48.6421 103.715 56.0522 88.6835 61.094 72.2922M30.4865 73.9344C36.809 71.1287 43.2116 67.17 48.1522 63.7518M30.4865 73.9344C22.4387 77.5057 14.5209 79.2089 9.91375 75.5514C3.39153 70.3734 14.7575 56.7521 25.7016 46.1235M36.4023 36.4269C36.9459 34.323 37.5444 32.1452 38.1992 29.9595M36.4023 36.4269C33.4393 38.936 29.5972 42.3401 25.7016 46.1235M36.4023 36.4269C39.081 34.1584 41.041 32.6214 41.6722 32.197C41.7721 32.1298 41.9144 32.0315 42.0964 31.9041M48.1522 63.7518C51.8596 61.1867 54.7437 58.9259 56.1527 57.6851C57.6302 56.384 61.5984 53.3235 66.5726 49.2618M48.1522 63.7518C51.7092 66.2296 56.1909 69.2105 61.094 72.2922M25.7016 46.1235C15.0979 37.0807 5.38822 27.0166 12.382 24.0835C18.0322 21.7136 28.552 25.3308 38.1992 29.9595M38.1992 29.9595C42.0875 16.9796 47.9623 3.7215 56.1527 4.00445C61.6667 4.19494 64.9706 8.86224 66.6812 15.748M38.1992 29.9595C39.5195 30.593 40.8236 31.2455 42.0964 31.9041M42.0964 31.9041C44.6785 30.0987 55.2716 22.4814 66.6812 15.748M42.0964 31.9041C49.5355 35.7532 55.9135 39.8138 58.2919 41.5399C59.5601 42.4603 62.7229 44.497 66.8751 47.2768M66.6812 15.748C68.8018 24.2828 68.4747 36.226 66.8751 47.2768M66.6812 15.748C80.9788 7.31042 96.5587 0.260808 99.2653 7.77433C102.852 17.731 82.1935 36.3936 68.0393 48.0585M66.8751 47.2768C66.7786 47.9419 66.6778 48.604 66.5726 49.2618M66.8751 47.2768C67.255 47.5314 67.6434 47.792 68.0393 48.0585M68.0393 48.0585C67.542 48.4684 67.0526 48.8697 66.5726 49.2618M68.0393 48.0585C82.9628 58.1073 108.674 76.5925 107.986 88.1725C107.361 98.7118 80.8169 84.6876 61.094 72.2922M66.5726 49.2618C66.1955 51.6185 65.7625 53.9216 65.2853 56.128C64.1473 61.3915 62.7481 66.9149 61.094 72.2922" stroke="#7853E1" stroke-width="7"/>
</g>
<g filter="url(#filter1_d_2150_2078)">
<path d="M46.6695 65.3025C54.3942 65.3025 60.6564 59.0648 60.6564 51.3701C60.6564 43.6755 54.3942 37.4377 46.6695 37.4377C38.9448 37.4377 32.6826 43.6755 32.6826 51.3701C32.6826 59.0648 38.9448 65.3025 46.6695 65.3025Z" fill="#7853E1"/>
</g>
<g filter="url(#filter2_f_2150_2078)">
<path d="M39.065 42.527C35.198 45.7232 33.6348 51.5421 36.3499 47.2804C39.065 43.0187 43.7547 40.8059 44.8243 40.5601C45.8939 40.3142 42.9319 39.3307 39.065 42.527Z" fill="white"/>
<path d="M39.065 42.527C35.198 45.7232 33.6348 51.5421 36.3499 47.2804C39.065 43.0187 43.7547 40.8059 44.8243 40.5601C45.8939 40.3142 42.9319 39.3307 39.065 42.527Z" stroke="white"/>
</g>
<g filter="url(#filter3_di_2150_2078)">
<path d="M30.1321 77.5958C32.2678 77.5958 33.9991 75.8713 33.9991 73.7439C33.9991 71.6166 32.2678 69.892 30.1321 69.892C27.9964 69.892 26.2651 71.6166 26.2651 73.7439C26.2651 75.8713 27.9964 77.5958 30.1321 77.5958Z" fill="#7853E1"/>
</g>
<g filter="url(#filter4_di_2150_2078)">
<path d="M98.0098 8.91732C99.373 8.91732 100.478 7.81654 100.478 6.45866C100.478 5.10078 99.373 4 98.0098 4C96.6466 4 95.5415 5.10078 95.5415 6.45866C95.5415 7.81654 96.6466 8.91732 98.0098 8.91732Z" fill="#7853E1"/>
</g>
<g filter="url(#filter5_di_2150_2078)">
<path d="M45.1885 13.8346C46.5517 13.8346 47.6568 12.7338 47.6568 11.376C47.6568 10.0181 46.5517 8.9173 45.1885 8.9173C43.8253 8.9173 42.7202 10.0181 42.7202 11.376C42.7202 12.7338 43.8253 13.8346 45.1885 13.8346Z" fill="#7853E1"/>
</g>
<g filter="url(#filter6_di_2150_2078)">
<path d="M101.465 78.7432C102.829 78.7432 103.934 77.6424 103.934 76.2845C103.934 74.9266 102.829 73.8259 101.465 73.8259C100.102 73.8259 98.9971 74.9266 98.9971 76.2845C98.9971 77.6424 100.102 78.7432 101.465 78.7432Z" fill="#7853E1"/>
</g>
<g filter="url(#filter7_di_2150_2078)">
<path d="M20.3413 42.6829C21.7045 42.6829 22.8096 41.5821 22.8096 40.2242C22.8096 38.8663 21.7045 37.7656 20.3413 37.7656C18.9781 37.7656 17.873 38.8663 17.873 40.2242C17.873 41.5821 18.9781 42.6829 20.3413 42.6829Z" fill="#7853E1"/>
</g>
<g filter="url(#filter8_di_2150_2078)">
<path d="M72.9981 47.1904C72.9981 49.8608 70.9353 52.0258 68.3906 52.0258C65.846 52.0258 63.7832 49.8608 63.7832 47.1904C63.7832 44.52 65.846 42.355 68.3906 42.355C70.9353 42.355 72.9981 44.52 72.9981 47.1904Z" fill="#7853E1"/>
</g>
<path d="M29.5562 49.4032L50.4542 65.3025" stroke="#7449EB" stroke-width="7"/>
<defs>
<filter id="filter0_d_2150_2078" x="0.502441" y="0.499756" width="114.998" height="117" filterUnits="userSpaceOnUse" color-interpolation-filters="sRGB">
<feFlood flood-opacity="0" result="BackgroundImageFix"/>
<feColorMatrix in="SourceAlpha" type="matrix" values="0 0 0 0 0 0 0 0 0 0 0 0 0 0 0 0 0 0 127 0" result="hardAlpha"/>
<feOffset dy="4"/>
<feGaussianBlur stdDeviation="2"/>
<feComposite in2="hardAlpha" operator="out"/>
<feColorMatrix type="matrix" values="0 0 0 0 0 0 0 0 0 0 0 0 0 0 0 0 0 0 0.25 0"/>
<feBlend mode="normal" in2="BackgroundImageFix" result="effect1_dropShadow_2150_2078"/>
<feBlend mode="normal" in="SourceGraphic" in2="effect1_dropShadow_2150_2078" result="shape"/>
</filter>
<filter id="filter1_d_2150_2078" x="28.6826" y="37.4377" width="35.9736" height="35.8648" filterUnits="userSpaceOnUse" color-interpolation-filters="sRGB">
<feFlood flood-opacity="0" result="BackgroundImageFix"/>
<feColorMatrix in="SourceAlpha" type="matrix" values="0 0 0 0 0 0 0 0 0 0 0 0 0 0 0 0 0 0 127 0" result="hardAlpha"/>
<feOffset dy="4"/>
<feGaussianBlur stdDeviation="2"/>
<feComposite in2="hardAlpha" operator="out"/>
<feColorMatrix type="matrix" values="0 0 0 0 0 0 0 0 0 0 0 0 0 0 0 0 0 0 0.25 0"/>
<feBlend mode="normal" in2="BackgroundImageFix" result="effect1_dropShadow_2150_2078"/>
<feBlend mode="normal" in="SourceGraphic" in2="effect1_dropShadow_2150_2078" result="shape"/>
</filter>
<filter id="filter2_f_2150_2078" x="32.4863" y="37.7242" width="15.0596" height="13.5608" filterUnits="userSpaceOnUse" color-interpolation-filters="sRGB">
<feFlood flood-opacity="0" result="BackgroundImageFix"/>
<feBlend mode="normal" in="SourceGraphic" in2="BackgroundImageFix" result="shape"/>
<feGaussianBlur stdDeviation="1" result="effect1_foregroundBlur_2150_2078"/>
</filter>
<filter id="filter3_di_2150_2078" x="22.2651" y="65.892" width="13.7339" height="17.7038" filterUnits="userSpaceOnUse" color-interpolation-filters="sRGB">
<feFlood flood-opacity="0" result="BackgroundImageFix"/>
<feColorMatrix in="SourceAlpha" type="matrix" values="0 0 0 0 0 0 0 0 0 0 0 0 0 0 0 0 0 0 127 0" result="hardAlpha"/>
<feOffset dy="4"/>
<feGaussianBlur stdDeviation="1"/>
<feComposite in2="hardAlpha" operator="out"/>
<feColorMatrix type="matrix" values="0 0 0 0 0 0 0 0 0 0 0 0 0 0 0 0 0 0 0.25 0"/>
<feBlend mode="normal" in2="BackgroundImageFix" result="effect1_dropShadow_2150_2078"/>
<feBlend mode="normal" in="SourceGraphic" in2="effect1_dropShadow_2150_2078" result="shape"/>
<feColorMatrix in="SourceAlpha" type="matrix" values="0 0 0 0 0 0 0 0 0 0 0 0 0 0 0 0 0 0 127 0" result="hardAlpha"/>
<feOffset dx="-6" dy="-6"/>
<feGaussianBlur stdDeviation="2"/>
<feComposite in2="hardAlpha" operator="arithmetic" k2="-1" k3="1"/>
<feColorMatrix type="matrix" values="0 0 0 0 0 0 0 0 0 0 0 0 0 0 0 0 0 0 0.25 0"/>
<feBlend mode="normal" in2="shape" result="effect2_innerShadow_2150_2078"/>
</filter>
<filter id="filter4_di_2150_2078" x="91.5415" y="0" width="10.9365" height="14.9173" filterUnits="userSpaceOnUse" color-interpolation-filters="sRGB">
<feFlood flood-opacity="0" result="BackgroundImageFix"/>
<feColorMatrix in="SourceAlpha" type="matrix" values="0 0 0 0 0 0 0 0 0 0 0 0 0 0 0 0 0 0 127 0" result="hardAlpha"/>
<feOffset dy="4"/>
<feGaussianBlur stdDeviation="1"/>
<feComposite in2="hardAlpha" operator="out"/>
<feColorMatrix type="matrix" values="0 0 0 0 0 0 0 0 0 0 0 0 0 0 0 0 0 0 0.25 0"/>
<feBlend mode="normal" in2="BackgroundImageFix" result="effect1_dropShadow_2150_2078"/>
<feBlend mode="normal" in="SourceGraphic" in2="effect1_dropShadow_2150_2078" result="shape"/>
<feColorMatrix in="SourceAlpha" type="matrix" values="0 0 0 0 0 0 0 0 0 0 0 0 0 0 0 0 0 0 127 0" result="hardAlpha"/>
<feOffset dx="-6" dy="-6"/>
<feGaussianBlur stdDeviation="2"/>
<feComposite in2="hardAlpha" operator="arithmetic" k2="-1" k3="1"/>
<feColorMatrix type="matrix" values="0 0 0 0 0 0 0 0 0 0 0 0 0 0 0 0 0 0 0.25 0"/>
<feBlend mode="normal" in2="shape" result="effect2_innerShadow_2150_2078"/>
</filter>
<filter id="filter5_di_2150_2078" x="38.7202" y="4.9173" width="10.9365" height="14.9173" filterUnits="userSpaceOnUse" color-interpolation-filters="sRGB">
<feFlood flood-opacity="0" result="BackgroundImageFix"/>
<feColorMatrix in="SourceAlpha" type="matrix" values="0 0 0 0 0 0 0 0 0 0 0 0 0 0 0 0 0 0 127 0" result="hardAlpha"/>
<feOffset dy="4"/>
<feGaussianBlur stdDeviation="1"/>
<feComposite in2="hardAlpha" operator="out"/>
<feColorMatrix type="matrix" values="0 0 0 0 0 0 0 0 0 0 0 0 0 0 0 0 0 0 0.25 0"/>
<feBlend mode="normal" in2="BackgroundImageFix" result="effect1_dropShadow_2150_2078"/>
<feBlend mode="normal" in="SourceGraphic" in2="effect1_dropShadow_2150_2078" result="shape"/>
<feColorMatrix in="SourceAlpha" type="matrix" values="0 0 0 0 0 0 0 0 0 0 0 0 0 0 0 0 0 0 127 0" result="hardAlpha"/>
<feOffset dx="-6" dy="-6"/>
<feGaussianBlur stdDeviation="2"/>
<feComposite in2="hardAlpha" operator="arithmetic" k2="-1" k3="1"/>
<feColorMatrix type="matrix" values="0 0 0 0 0 0 0 0 0 0 0 0 0 0 0 0 0 0 0.25 0"/>
<feBlend mode="normal" in2="shape" result="effect2_innerShadow_2150_2078"/>
</filter>
<filter id="filter6_di_2150_2078" x="94.9971" y="69.8259" width="10.9365" height="14.9173" filterUnits="userSpaceOnUse" color-interpolation-filters="sRGB">
<feFlood flood-opacity="0" result="BackgroundImageFix"/>
<feColorMatrix in="SourceAlpha" type="matrix" values="0 0 0 0 0 0 0 0 0 0 0 0 0 0 0 0 0 0 127 0" result="hardAlpha"/>
<feOffset dy="4"/>
<feGaussianBlur stdDeviation="1"/>
<feComposite in2="hardAlpha" operator="out"/>
<feColorMatrix type="matrix" values="0 0 0 0 0 0 0 0 0 0 0 0 0 0 0 0 0 0 0.25 0"/>
<feBlend mode="normal" in2="BackgroundImageFix" result="effect1_dropShadow_2150_2078"/>
<feBlend mode="normal" in="SourceGraphic" in2="effect1_dropShadow_2150_2078" result="shape"/>
<feColorMatrix in="SourceAlpha" type="matrix" values="0 0 0 0 0 0 0 0 0 0 0 0 0 0 0 0 0 0 127 0" result="hardAlpha"/>
<feOffset dx="-6" dy="-6"/>
<feGaussianBlur stdDeviation="2"/>
<feComposite in2="hardAlpha" operator="arithmetic" k2="-1" k3="1"/>
<feColorMatrix type="matrix" values="0 0 0 0 0 0 0 0 0 0 0 0 0 0 0 0 0 0 0.25 0"/>
<feBlend mode="normal" in2="shape" result="effect2_innerShadow_2150_2078"/>
</filter>
<filter id="filter7_di_2150_2078" x="13.873" y="33.7656" width="10.9365" height="14.9173" filterUnits="userSpaceOnUse" color-interpolation-filters="sRGB">
<feFlood flood-opacity="0" result="BackgroundImageFix"/>
<feColorMatrix in="SourceAlpha" type="matrix" values="0 0 0 0 0 0 0 0 0 0 0 0 0 0 0 0 0 0 127 0" result="hardAlpha"/>
<feOffset dy="4"/>
<feGaussianBlur stdDeviation="1"/>
<feComposite in2="hardAlpha" operator="out"/>
<feColorMatrix type="matrix" values="0 0 0 0 0 0 0 0 0 0 0 0 0 0 0 0 0 0 0.25 0"/>
<feBlend mode="normal" in2="BackgroundImageFix" result="effect1_dropShadow_2150_2078"/>
<feBlend mode="normal" in="SourceGraphic" in2="effect1_dropShadow_2150_2078" result="shape"/>
<feColorMatrix in="SourceAlpha" type="matrix" values="0 0 0 0 0 0 0 0 0 0 0 0 0 0 0 0 0 0 127 0" result="hardAlpha"/>
<feOffset dx="-6" dy="-6"/>
<feGaussianBlur stdDeviation="2"/>
<feComposite in2="hardAlpha" operator="arithmetic" k2="-1" k3="1"/>
<feColorMatrix type="matrix" values="0 0 0 0 0 0 0 0 0 0 0 0 0 0 0 0 0 0 0.25 0"/>
<feBlend mode="normal" in2="shape" result="effect2_innerShadow_2150_2078"/>
</filter>
<filter id="filter8_di_2150_2078" x="59.7832" y="38.355" width="15.2148" height="19.6707" filterUnits="userSpaceOnUse" color-interpolation-filters="sRGB">
<feFlood flood-opacity="0" result="BackgroundImageFix"/>
<feColorMatrix in="SourceAlpha" type="matrix" values="0 0 0 0 0 0 0 0 0 0 0 0 0 0 0 0 0 0 127 0" result="hardAlpha"/>
<feOffset dy="4"/>
<feGaussianBlur stdDeviation="1"/>
<feComposite in2="hardAlpha" operator="out"/>
<feColorMatrix type="matrix" values="0 0 0 0 0 0 0 0 0 0 0 0 0 0 0 0 0 0 0.25 0"/>
<feBlend mode="normal" in2="BackgroundImageFix" result="effect1_dropShadow_2150_2078"/>
<feBlend mode="normal" in="SourceGraphic" in2="effect1_dropShadow_2150_2078" result="shape"/>
<feColorMatrix in="SourceAlpha" type="matrix" values="0 0 0 0 0 0 0 0 0 0 0 0 0 0 0 0 0 0 127 0" result="hardAlpha"/>
<feOffset dx="-6" dy="-6"/>
<feGaussianBlur stdDeviation="2"/>
<feComposite in2="hardAlpha" operator="arithmetic" k2="-1" k3="1"/>
<feColorMatrix type="matrix" values="0 0 0 0 0 0 0 0 0 0 0 0 0 0 0 0 0 0 0.25 0"/>
<feBlend mode="normal" in2="shape" result="effect2_innerShadow_2150_2078"/>
</filter>
</defs>
</svg>
