<svg width="769" height="1080" viewBox="0 0 769 1080" fill="none" xmlns="http://www.w3.org/2000/svg">
<path d="M285 692C634.085 680 -266.076 569.5 83.0098 419.5C432.095 269.5 429.963 267.75 429.963 267.75L776.917 116V1090H238.633L83.0098 909C83.0098 909 -64.0858 704 285 692Z" stroke="#7449EB"/>
<path d="M354.748 641.793C699.104 628.068 -188.86 501.685 155.495 330.124C499.85 158.564 497.748 156.562 497.748 156.562L840 -17V1097H309.009L155.495 889.984C155.495 889.984 10.3928 655.517 354.748 641.793Z" stroke="#7449EB"/>
<path d="M784.803 1090.88V99.375L438.437 253.852C438.437 253.852 440.565 255.633 92.0706 408.328C-256.423 561.023 642.213 673.508 293.718 685.724C-54.7758 697.94 92.0706 906.623 92.0706 906.623L247.43 1090.88H784.803Z" stroke="#7449EB"/>
<path d="M792.688 1091.75V82.75L446.91 239.953C446.91 239.953 449.034 241.766 101.131 397.156C-246.771 552.546 650.34 667.017 302.437 679.448C-45.4659 691.879 101.131 904.246 101.131 904.246L256.227 1091.75H792.688Z" stroke="#7449EB"/>
<path d="M800.573 1092.62V66.125L455.382 226.055C455.382 226.055 457.503 227.899 110.192 385.984C-237.12 544.069 658.467 660.525 311.155 673.172C-36.1564 685.819 110.192 901.869 110.192 901.869L265.024 1092.62H800.573Z" stroke="#7449EB"/>
<path d="M808.459 1093.5V49.5L463.855 212.156C463.855 212.156 465.973 214.032 119.252 374.812C-227.468 535.592 666.594 654.034 319.874 666.896C-26.8465 679.759 119.252 899.492 119.252 899.492L273.821 1093.5H808.459Z" stroke="#7449EB"/>
<path d="M816.344 1094.38V32.875L472.329 198.258C472.329 198.258 474.442 200.165 128.313 363.64C-217.816 527.115 674.722 647.542 328.593 660.62C-17.5366 673.698 128.313 897.115 128.313 897.115L282.618 1094.38H816.344Z" stroke="#7449EB"/>
<path d="M824.229 1095.25V16.25L480.801 184.359C480.801 184.359 482.911 186.298 137.374 352.468C-208.164 518.639 682.849 641.051 337.311 654.344C-8.22708 667.638 137.374 894.738 137.374 894.738L291.415 1095.25H824.229Z" stroke="#7449EB"/>
<path d="M832.115 1096.12V-0.375L489.274 170.461C489.274 170.461 491.381 172.431 146.434 341.296C-198.512 510.162 690.976 634.559 346.029 648.069C1.08289 661.578 146.434 892.361 146.434 892.361L300.212 1096.12H832.115Z" stroke="#7449EB"/>
</svg>
