<svg width="125" height="125" viewBox="0 0 125 125" fill="none" xmlns="http://www.w3.org/2000/svg">
<path d="M0 50.187C0 39.7963 2.31771 30.2629 6.95312 21.5867C11.5885 12.9104 17.8125 5.71488 25.625 0L32.9688 9.97506C26.7188 14.547 21.7448 20.3138 18.0469 27.2756C14.349 34.2373 12.5 41.8745 12.5 50.187H0ZM112.5 50.187C112.5 41.8745 110.651 34.2373 106.953 27.2756C103.255 20.3138 98.2812 14.547 92.0312 9.97506L99.375 0C107.188 5.71488 113.411 12.9104 118.047 21.5867C122.682 30.2629 125 39.7963 125 50.187H112.5ZM12.5 106.297V93.8279H25V50.187C25 41.5628 27.6042 33.8996 32.8125 27.1976C38.0208 20.4956 44.7917 16.1056 53.125 14.0274V9.66334C53.125 7.06567 54.0365 4.85765 55.8594 3.03928C57.6823 1.22091 59.8958 0.311721 62.5 0.311721C65.1042 0.311721 67.3177 1.22091 69.1406 3.03928C70.9635 4.85765 71.875 7.06567 71.875 9.66334V14.0274C80.2083 16.1056 86.9792 20.4956 92.1875 27.1976C97.3958 33.8996 100 41.5628 100 50.187V93.8279H112.5V106.297H12.5ZM62.5 125C59.0625 125 56.1198 123.779 53.6719 121.337C51.224 118.895 50 115.96 50 112.531H75C75 115.96 73.776 118.895 71.3281 121.337C68.8802 123.779 65.9375 125 62.5 125ZM37.5 93.8279H87.5V50.187C87.5 43.3292 85.0521 37.4584 80.1563 32.5748C75.2604 27.6912 69.375 25.2494 62.5 25.2494C55.625 25.2494 49.7396 27.6912 44.8438 32.5748C39.9479 37.4584 37.5 43.3292 37.5 50.187V93.8279Z" fill="white"/>
</svg>
