<svg width="952" height="153" viewBox="0 0 952 153" fill="none" xmlns="http://www.w3.org/2000/svg">
<path d="M92.6 34.9C91.6 36.5 90.5333 37.7 89.4 38.5C88.3333 39.3 86.9333 39.7 85.2 39.7C83.6667 39.7 82 39.2333 80.2 38.3C78.4667 37.3 76.4667 36.2 74.2 35C72 33.8 69.4667 32.7333 66.6 31.8C63.7333 30.8 60.4667 30.3 56.8 30.3C50.4667 30.3 45.7333 31.6667 42.6 34.4C39.5333 37.0667 38 40.7 38 45.3C38 48.2333 38.9333 50.6667 40.8 52.6C42.6667 54.5333 45.1 56.2 48.1 57.6C51.1667 59 54.6333 60.3 58.5 61.5C62.4333 62.6333 66.4333 63.9333 70.5 65.4C74.5667 66.8 78.5333 68.4667 82.4 70.4C86.3333 72.3333 89.8 74.8 92.8 77.8C95.8667 80.8 98.3333 84.4667 100.2 88.8C102.067 93.0667 103 98.2333 103 104.3C103 111.033 101.833 117.333 99.5 123.2C97.1667 129.067 93.7667 134.2 89.3 138.6C84.9 142.933 79.4333 146.367 72.9 148.9C66.4333 151.367 59.0667 152.6 50.8 152.6C46.2667 152.6 41.6333 152.133 36.9 151.2C32.2333 150.267 27.7 148.967 23.3 147.3C18.9 145.567 14.7667 143.533 10.9 141.2C7.03333 138.867 3.66667 136.267 0.8 133.4L10.8 117.6C11.6 116.467 12.6333 115.533 13.9 114.8C15.2333 114 16.6667 113.6 18.2 113.6C20.2 113.6 22.2 114.233 24.2 115.5C26.2667 116.767 28.5667 118.167 31.1 119.7C33.7 121.233 36.6667 122.633 40 123.9C43.3333 125.167 47.2667 125.8 51.8 125.8C57.9333 125.8 62.7 124.467 66.1 121.8C69.5 119.067 71.2 114.767 71.2 108.9C71.2 105.5 70.2667 102.733 68.4 100.6C66.5333 98.4667 64.0667 96.7 61 95.3C58 93.9 54.5667 92.6667 50.7 91.6C46.8333 90.5333 42.8667 89.3667 38.8 88.1C34.7333 86.7667 30.7667 85.1667 26.9 83.3C23.0333 81.3667 19.5667 78.8667 16.5 75.8C13.5 72.6667 11.0667 68.8 9.2 64.2C7.33333 59.5333 6.4 53.8 6.4 47C6.4 41.5333 7.5 36.2 9.7 31C11.9 25.8 15.1333 21.1667 19.4 17.1C23.6667 13.0333 28.9 9.79999 35.1 7.39999C41.3 4.93333 48.4 3.7 56.4 3.7C60.8667 3.7 65.2 4.06666 69.4 4.8C73.6667 5.46666 77.7 6.49999 81.5 7.89999C85.3 9.23333 88.8333 10.8667 92.1 12.8C95.4333 14.6667 98.4 16.8 101 19.2L92.6 34.9ZM183.742 86.7C183.742 84.2333 183.409 81.8333 182.742 79.5C182.142 77.1667 181.109 75.1 179.642 73.3C178.242 71.4333 176.376 69.9333 174.042 68.8C171.709 67.6667 168.876 67.1 165.542 67.1C159.676 67.1 155.076 68.8 151.742 72.2C148.409 75.5333 146.209 80.3667 145.142 86.7H183.742ZM144.742 104.7C145.742 113.367 148.376 119.667 152.642 123.6C156.909 127.467 162.409 129.4 169.142 129.4C172.742 129.4 175.842 128.967 178.442 128.1C181.042 127.233 183.342 126.267 185.342 125.2C187.409 124.133 189.276 123.167 190.942 122.3C192.676 121.433 194.476 121 196.342 121C198.809 121 200.676 121.9 201.942 123.7L210.942 134.8C207.742 138.467 204.276 141.467 200.542 143.8C196.876 146.067 193.076 147.867 189.142 149.2C185.276 150.467 181.376 151.333 177.442 151.8C173.576 152.333 169.876 152.6 166.342 152.6C159.076 152.6 152.242 151.433 145.842 149.1C139.509 146.7 133.942 143.167 129.142 138.5C124.409 133.833 120.642 128.033 117.842 121.1C115.109 114.167 113.742 106.1 113.742 96.9C113.742 89.9667 114.909 83.4 117.242 77.2C119.642 71 123.042 65.5667 127.442 60.9C131.909 56.2333 137.276 52.5333 143.542 49.8C149.876 47.0667 157.009 45.7 164.942 45.7C171.809 45.7 178.076 46.7667 183.742 48.9C189.476 51.0333 194.376 54.1333 198.442 58.2C202.576 62.2667 205.776 67.2667 208.042 73.2C210.376 79.0667 211.542 85.7333 211.542 93.2C211.542 95.5333 211.442 97.4333 211.242 98.9C211.042 100.367 210.676 101.533 210.142 102.4C209.609 103.267 208.876 103.867 207.942 104.2C207.076 104.533 205.942 104.7 204.542 104.7H144.742ZM256.055 63.3C259.255 57.7 262.921 53.3 267.055 50.1C271.255 46.9 276.055 45.3 281.455 45.3C286.121 45.3 289.921 46.4 292.855 48.6L290.855 71.4C290.521 72.8667 289.955 73.8667 289.155 74.4C288.421 74.9333 287.388 75.2 286.055 75.2C285.521 75.2 284.821 75.1667 283.955 75.1C283.088 75.0333 282.188 74.9667 281.255 74.9C280.321 74.7667 279.355 74.6667 278.355 74.6C277.421 74.4667 276.555 74.4 275.755 74.4C271.221 74.4 267.588 75.6 264.855 78C262.188 80.4 259.921 83.7333 258.055 88V151H227.055V47.3H245.455C246.988 47.3 248.255 47.4333 249.255 47.7C250.321 47.9667 251.188 48.4 251.855 49C252.588 49.5333 253.121 50.2667 253.455 51.2C253.855 52.1333 254.188 53.2667 254.455 54.6L256.055 63.3ZM401.122 47.3L360.922 151H332.722L292.522 47.3H318.322C320.522 47.3 322.355 47.8333 323.822 48.9C325.355 49.9 326.389 51.1667 326.922 52.7L341.322 99.2C342.589 103 343.689 106.7 344.622 110.3C345.622 113.9 346.489 117.5 347.222 121.1C348.689 113.9 350.722 106.6 353.322 99.2L368.322 52.7C368.855 51.1667 369.855 49.9 371.322 48.9C372.789 47.8333 374.522 47.3 376.522 47.3H401.122ZM442.934 47.3V151H411.934V47.3H442.934ZM446.134 18.9C446.134 21.3667 445.634 23.7 444.634 25.9C443.634 28.0333 442.268 29.9333 440.534 31.6C438.801 33.2 436.768 34.5 434.434 35.5C432.168 36.4333 429.734 36.9 427.134 36.9C424.601 36.9 422.234 36.4333 420.034 35.5C417.834 34.5 415.868 33.2 414.134 31.6C412.468 29.9333 411.134 28.0333 410.134 25.9C409.201 23.7 408.734 21.3667 408.734 18.9C408.734 16.3667 409.201 14 410.134 11.8C411.134 9.59999 412.468 7.66666 414.134 6C415.868 4.33333 417.834 3.03333 420.034 2.09999C422.234 1.16666 424.601 0.699998 427.134 0.699998C429.734 0.699998 432.168 1.16666 434.434 2.09999C436.768 3.03333 438.801 4.33333 440.534 6C442.268 7.66666 443.634 9.59999 444.634 11.8C445.634 14 446.134 16.3667 446.134 18.9ZM527.455 75.1C525.121 72.5 522.588 70.7 519.855 69.7C517.121 68.6333 514.255 68.1 511.255 68.1C508.388 68.1 505.755 68.6667 503.355 69.8C500.955 70.9333 498.855 72.7667 497.055 75.3C495.321 77.7667 493.955 81 492.955 85C491.955 89 491.455 93.8333 491.455 99.5C491.455 104.967 491.855 109.567 492.655 113.3C493.455 117.033 494.555 120.067 495.955 122.4C497.421 124.667 499.155 126.3 501.155 127.3C503.155 128.3 505.388 128.8 507.855 128.8C510.121 128.8 512.155 128.6 513.955 128.2C515.821 127.733 517.521 127.1 519.055 126.3C520.588 125.5 522.021 124.5 523.355 123.3C524.755 122.033 526.121 120.6 527.455 119V75.1ZM558.455 1.29999V151H539.255C535.388 151 532.855 149.267 531.655 145.8L529.255 137.9C527.188 140.1 525.021 142.1 522.755 143.9C520.488 145.7 518.021 147.267 515.355 148.6C512.755 149.867 509.921 150.833 506.855 151.5C503.855 152.233 500.588 152.6 497.055 152.6C491.655 152.6 486.655 151.4 482.055 149C477.455 146.6 473.488 143.133 470.155 138.6C466.821 134.067 464.188 128.533 462.255 122C460.388 115.4 459.455 107.9 459.455 99.5C459.455 91.7667 460.521 84.6 462.655 78C464.788 71.3333 467.788 65.6 471.655 60.8C475.588 55.9333 480.288 52.1333 485.755 49.4C491.221 46.6667 497.255 45.3 503.855 45.3C509.255 45.3 513.788 46.0667 517.455 47.6C521.121 49.1333 524.455 51.2 527.455 53.8V1.29999H558.455ZM627.198 45.7C635.065 45.7 642.232 46.9333 648.698 49.4C655.165 51.8667 660.698 55.4 665.298 60C669.965 64.6 673.565 70.2 676.098 76.8C678.698 83.3333 679.998 90.7 679.998 98.9C679.998 107.167 678.698 114.633 676.098 121.3C673.565 127.9 669.965 133.533 665.298 138.2C660.698 142.8 655.165 146.367 648.698 148.9C642.232 151.367 635.065 152.6 627.198 152.6C619.265 152.6 612.032 151.367 605.498 148.9C599.032 146.367 593.432 142.8 588.698 138.2C584.032 133.533 580.398 127.9 577.798 121.3C575.265 114.633 573.998 107.167 573.998 98.9C573.998 90.7 575.265 83.3333 577.798 76.8C580.398 70.2 584.032 64.6 588.698 60C593.432 55.4 599.032 51.8667 605.498 49.4C612.032 46.9333 619.265 45.7 627.198 45.7ZM627.198 129.6C634.332 129.6 639.565 127.1 642.898 122.1C646.298 117.033 647.998 109.367 647.998 99.1C647.998 88.8333 646.298 81.2 642.898 76.2C639.565 71.2 634.332 68.7 627.198 68.7C619.865 68.7 614.498 71.2 611.098 76.2C607.698 81.2 605.998 88.8333 605.998 99.1C605.998 109.367 607.698 117.033 611.098 122.1C614.498 127.1 619.865 129.6 627.198 129.6ZM724.609 63.3C727.809 57.7 731.476 53.3 735.609 50.1C739.809 46.9 744.609 45.3 750.009 45.3C754.676 45.3 758.476 46.4 761.409 48.6L759.409 71.4C759.076 72.8667 758.509 73.8667 757.709 74.4C756.976 74.9333 755.943 75.2 754.609 75.2C754.076 75.2 753.376 75.1667 752.509 75.1C751.643 75.0333 750.743 74.9667 749.809 74.9C748.876 74.7667 747.909 74.6667 746.909 74.6C745.976 74.4667 745.109 74.4 744.309 74.4C739.776 74.4 736.143 75.6 733.409 78C730.743 80.4 728.476 83.7333 726.609 88V151H695.609V47.3H714.009C715.543 47.3 716.809 47.4333 717.809 47.7C718.876 47.9667 719.743 48.4 720.409 49C721.143 49.5333 721.676 50.2667 722.009 51.2C722.409 52.1333 722.743 53.2667 723.009 54.6L724.609 63.3ZM834.719 86.7C834.719 84.2333 834.385 81.8333 833.719 79.5C833.119 77.1667 832.085 75.1 830.619 73.3C829.219 71.4333 827.352 69.9333 825.019 68.8C822.685 67.6667 819.852 67.1 816.519 67.1C810.652 67.1 806.052 68.8 802.719 72.2C799.385 75.5333 797.185 80.3667 796.119 86.7H834.719ZM795.719 104.7C796.719 113.367 799.352 119.667 803.619 123.6C807.885 127.467 813.385 129.4 820.119 129.4C823.719 129.4 826.819 128.967 829.419 128.1C832.019 127.233 834.319 126.267 836.319 125.2C838.385 124.133 840.252 123.167 841.919 122.3C843.652 121.433 845.452 121 847.319 121C849.785 121 851.652 121.9 852.919 123.7L861.919 134.8C858.719 138.467 855.252 141.467 851.519 143.8C847.852 146.067 844.052 147.867 840.119 149.2C836.252 150.467 832.352 151.333 828.419 151.8C824.552 152.333 820.852 152.6 817.319 152.6C810.052 152.6 803.219 151.433 796.819 149.1C790.485 146.7 784.919 143.167 780.119 138.5C775.385 133.833 771.619 128.033 768.819 121.1C766.085 114.167 764.719 106.1 764.719 96.9C764.719 89.9667 765.885 83.4 768.219 77.2C770.619 71 774.019 65.5667 778.419 60.9C782.885 56.2333 788.252 52.5333 794.519 49.8C800.852 47.0667 807.985 45.7 815.919 45.7C822.785 45.7 829.052 46.7667 834.719 48.9C840.452 51.0333 845.352 54.1333 849.419 58.2C853.552 62.2667 856.752 67.2667 859.019 73.2C861.352 79.0667 862.519 85.7333 862.519 93.2C862.519 95.5333 862.419 97.4333 862.219 98.9C862.019 100.367 861.652 101.533 861.119 102.4C860.585 103.267 859.852 103.867 858.919 104.2C858.052 104.533 856.919 104.7 855.519 104.7H795.719ZM943.931 70C943.131 71.2667 942.265 72.1667 941.331 72.7C940.465 73.2333 939.331 73.5 937.931 73.5C936.465 73.5 934.998 73.2 933.531 72.6C932.065 71.9333 930.465 71.2333 928.731 70.5C927.065 69.7667 925.165 69.1 923.031 68.5C920.898 67.8333 918.465 67.5 915.731 67.5C911.798 67.5 908.765 68.2667 906.631 69.8C904.565 71.2667 903.531 73.3333 903.531 76C903.531 77.9333 904.198 79.5333 905.531 80.8C906.931 82.0667 908.765 83.2 911.031 84.2C913.298 85.1333 915.865 86.0333 918.731 86.9C921.598 87.7667 924.531 88.7333 927.531 89.8C930.531 90.8667 933.465 92.1333 936.331 93.6C939.198 95 941.765 96.7667 944.031 98.9C946.298 100.967 948.098 103.5 949.431 106.5C950.831 109.5 951.531 113.1 951.531 117.3C951.531 122.433 950.598 127.167 948.731 131.5C946.865 135.833 944.065 139.567 940.331 142.7C936.665 145.833 932.098 148.267 926.631 150C921.231 151.733 914.998 152.6 907.931 152.6C904.398 152.6 900.865 152.267 897.331 151.6C893.798 150.933 890.365 150.033 887.031 148.9C883.765 147.767 880.731 146.433 877.931 144.9C875.131 143.3 872.731 141.6 870.731 139.8L877.931 128.4C878.731 127.067 879.731 126.033 880.931 125.3C882.198 124.5 883.798 124.1 885.731 124.1C887.531 124.1 889.131 124.5 890.531 125.3C891.998 126.1 893.565 126.967 895.231 127.9C896.898 128.833 898.831 129.7 901.031 130.5C903.298 131.3 906.131 131.7 909.531 131.7C911.931 131.7 913.965 131.467 915.631 131C917.298 130.467 918.631 129.767 919.631 128.9C920.631 128.033 921.365 127.067 921.831 126C922.298 124.933 922.531 123.833 922.531 122.7C922.531 120.633 921.831 118.933 920.431 117.6C919.031 116.267 917.198 115.133 914.931 114.2C912.665 113.2 910.065 112.3 907.131 111.5C904.265 110.633 901.331 109.667 898.331 108.6C895.331 107.533 892.365 106.267 889.431 104.8C886.565 103.267 883.998 101.367 881.731 99.1C879.465 96.7667 877.631 93.9333 876.231 90.6C874.831 87.2667 874.131 83.2333 874.131 78.5C874.131 74.1 874.965 69.9333 876.631 66C878.365 62 880.931 58.5 884.331 55.5C887.731 52.5 891.998 50.1333 897.131 48.4C902.265 46.6 908.265 45.7 915.131 45.7C918.865 45.7 922.465 46.0333 925.931 46.7C929.465 47.3667 932.765 48.3 935.831 49.5C938.898 50.7 941.698 52.1333 944.231 53.8C946.765 55.4 948.998 57.1667 950.931 59.1L943.931 70Z" fill="url(#paint0_linear_2133_2043)" fill-opacity="0.4"/>
<defs>
<linearGradient id="paint0_linear_2133_2043" x1="726" y1="-79.5" x2="736" y2="543.5" gradientUnits="userSpaceOnUse">
<stop stop-color="white"/>
<stop offset="0.38" stop-color="#111111" stop-opacity="0.0666667"/>
</linearGradient>
</defs>
</svg>
