<svg width="32" height="22" viewBox="0 0 32 22" fill="none" xmlns="http://www.w3.org/2000/svg">
<path d="M0.834052 4.78663L0.833347 4.78618C0.601835 4.6359 0.5 4.45027 0.5 4.30001V3.8889C0.5 2.20393 1.87059 0.833344 3.55556 0.833344H28.4444C30.1294 0.833344 31.5 2.20393 31.5 3.8889V4.30001C31.5 4.45027 31.3982 4.6359 31.1667 4.78617L31.166 4.78663C30.2976 5.3524 29.7222 6.32881 29.7222 7.44445C29.7222 8.5601 30.2976 9.53651 31.166 10.1023L31.1667 10.1027C31.3982 10.253 31.5 10.4386 31.5 10.5889V14.0556H0.5V10.5889C0.5 10.4386 0.601836 10.253 0.833346 10.1027L0.834051 10.1023C1.70244 9.53651 2.27778 8.5601 2.27778 7.44445C2.27778 6.32881 1.70244 5.3524 0.834052 4.78663ZM0.5 19.8889V16.8333H31.5V19.8889C31.5 20.5961 30.9294 21.1667 30.2222 21.1667H28.0556V19.8889C28.0556 19.1239 27.4317 18.5 26.6667 18.5C25.9016 18.5 25.2778 19.1239 25.2778 19.8889V21.1667H20.9444V19.8889C20.9444 19.1239 20.3206 18.5 19.5556 18.5C18.7905 18.5 18.1667 19.1239 18.1667 19.8889V21.1667H13.8333V19.8889C13.8333 19.1239 13.2095 18.5 12.4444 18.5C11.6794 18.5 11.0556 19.1239 11.0556 19.8889V21.1667H6.72222V19.8889C6.72222 19.1239 6.09837 18.5 5.33333 18.5C4.5683 18.5 3.94444 19.1239 3.94444 19.8889V21.1667H1.77778C1.07059 21.1667 0.5 20.5961 0.5 19.8889ZM11.1667 9.22223V5.66668C11.1667 4.4072 10.1484 3.3889 8.88889 3.3889C7.62941 3.3889 6.61111 4.4072 6.61111 5.66668V9.22223C6.61111 10.4817 7.62941 11.5 8.88889 11.5C10.1484 11.5 11.1667 10.4817 11.1667 9.22223ZM18.2778 9.22223V5.66668C18.2778 4.4072 17.2595 3.3889 16 3.3889C14.7405 3.3889 13.7222 4.4072 13.7222 5.66668V9.22223C13.7222 10.4817 14.7405 11.5 16 11.5C17.2595 11.5 18.2778 10.4817 18.2778 9.22223ZM25.3889 9.22223V5.66668C25.3889 4.4072 24.3706 3.3889 23.1111 3.3889C21.8516 3.3889 20.8333 4.4072 20.8333 5.66668V9.22223C20.8333 10.4817 21.8516 11.5 23.1111 11.5C24.3706 11.5 25.3889 10.4817 25.3889 9.22223Z" stroke="white"/>
</svg>
