<svg width="63" height="63" viewBox="0 0 63 63" fill="none" xmlns="http://www.w3.org/2000/svg">
<path d="M31.4999 0C24.0202 0.000318011 16.7846 2.72944 11.0879 7.69904C5.39117 12.6686 1.605 19.5544 0.406853 27.1243C-0.791297 34.6942 0.676757 42.4543 4.54834 49.0159C8.41992 55.5776 14.4424 60.5127 21.5381 62.9382C23.1131 63.2208 23.7037 62.252 23.7037 61.4041C23.7037 60.6371 23.6643 58.0937 23.6643 55.3888C15.75 56.8825 13.7025 53.4108 13.0725 51.5941C12.3734 49.8272 11.2653 48.2614 9.84377 47.0321C8.74127 46.4265 7.16629 44.9328 9.80436 44.8925C10.8117 45.0046 11.7778 45.3639 12.6209 45.9402C13.464 46.5164 14.1591 47.2926 14.6475 48.2028C15.0783 48.9963 15.6576 49.6949 16.3522 50.2585C17.0468 50.8221 17.8431 51.2396 18.6953 51.4871C19.5476 51.7346 20.4391 51.8073 21.3188 51.7009C22.1984 51.5946 23.049 51.3113 23.8217 50.8673C23.9581 49.2254 24.6718 47.6903 25.8299 46.5477C18.8212 45.7403 11.4975 42.9546 11.4975 30.6012C11.4532 27.3914 12.6085 24.2859 14.7262 21.9215C13.7632 19.1318 13.8759 16.0702 15.0412 13.3629C15.0412 13.3629 17.6792 12.515 23.7037 16.6733C28.8579 15.2198 34.2993 15.2198 39.4536 16.6733C45.4778 12.4747 48.116 13.3629 48.116 13.3629C49.2815 16.0702 49.3942 19.1318 48.431 21.9215C50.5551 24.2818 51.7114 27.3901 51.6597 30.6012C51.6597 42.995 44.2966 45.7403 37.2879 46.5477C38.0397 47.3289 38.6187 48.2669 38.9855 49.2978C39.3524 50.3288 39.4986 51.4286 39.4142 52.5226C39.4142 56.8424 39.3748 60.3141 39.3748 61.4042C39.3748 62.252 39.9654 63.2613 41.5404 62.9383C48.6236 60.493 54.6288 55.5463 58.4839 48.9813C62.339 42.4163 63.7931 34.6603 62.5866 27.0977C61.3802 19.5351 57.5917 12.6583 51.8974 7.69473C46.2032 2.73117 38.9738 0.00398834 31.4999 0Z" fill="#7449EB"/>
</svg>
