<svg width="120" height="120" viewBox="0 0 120 120" fill="none" xmlns="http://www.w3.org/2000/svg">
<path d="M27.2727 120H10.9091C7.90909 120 5.34091 118.932 3.20455 116.795C1.06818 114.659 0 112.091 0 109.091V92.7273H10.9091V109.091H27.2727V120ZM92.7273 120V109.091H109.091V92.7273H120V109.091C120 112.091 118.932 114.659 116.795 116.795C114.659 118.932 112.091 120 109.091 120H92.7273ZM60 95.4545C49.0909 95.4545 39.2045 92.2273 30.3409 85.7727C21.4773 79.3182 15 70.7273 10.9091 60C15 49.2727 21.4773 40.6818 30.3409 34.2273C39.2045 27.7727 49.0909 24.5455 60 24.5455C70.9091 24.5455 80.7955 27.7727 89.6591 34.2273C98.5227 40.6818 105 49.2727 109.091 60C105 70.7273 98.5227 79.3182 89.6591 85.7727C80.7955 92.2273 70.9091 95.4545 60 95.4545ZM60 84.5455C68 84.5455 75.3182 82.3636 81.9546 78C88.5909 73.6364 93.6818 67.6364 97.2273 60C93.6818 52.3636 88.5909 46.3636 81.9546 42C75.3182 37.6364 68 35.4545 60 35.4545C52 35.4545 44.6818 37.6364 38.0455 42C31.4091 46.3636 26.3182 52.3636 22.7727 60C26.3182 67.6364 31.4091 73.6364 38.0455 78C44.6818 82.3636 52 84.5455 60 84.5455ZM60 79.0909C65.2727 79.0909 69.7727 77.2273 73.5 73.5C77.2273 69.7727 79.0909 65.2727 79.0909 60C79.0909 54.7273 77.2273 50.2273 73.5 46.5C69.7727 42.7727 65.2727 40.9091 60 40.9091C54.7273 40.9091 50.2273 42.7727 46.5 46.5C42.7727 50.2273 40.9091 54.7273 40.9091 60C40.9091 65.2727 42.7727 69.7727 46.5 73.5C50.2273 77.2273 54.7273 79.0909 60 79.0909ZM60 68.1818C57.7273 68.1818 55.7955 67.3864 54.2045 65.7955C52.6136 64.2045 51.8182 62.2727 51.8182 60C51.8182 57.7273 52.6136 55.7955 54.2045 54.2045C55.7955 52.6136 57.7273 51.8182 60 51.8182C62.2727 51.8182 64.2045 52.6136 65.7955 54.2045C67.3864 55.7955 68.1818 57.7273 68.1818 60C68.1818 62.2727 67.3864 64.2045 65.7955 65.7955C64.2045 67.3864 62.2727 68.1818 60 68.1818ZM0 27.2727V10.9091C0 7.90909 1.06818 5.34091 3.20455 3.20455C5.34091 1.06818 7.90909 0 10.9091 0H27.2727V10.9091H10.9091V27.2727H0ZM109.091 27.2727V10.9091H92.7273V0H109.091C112.091 0 114.659 1.06818 116.795 3.20455C118.932 5.34091 120 7.90909 120 10.9091V27.2727H109.091Z" fill="white"/>
</svg>
