<svg width="20" height="19" viewBox="0 0 20 19" fill="none" xmlns="http://www.w3.org/2000/svg">
<path d="M0 18.1616L10 0.888916L20 18.1616H0ZM10 15.4344C10.2576 15.4344 10.4735 15.3472 10.6477 15.173C10.822 14.9988 10.9091 14.7829 10.9091 14.5253C10.9091 14.2677 10.822 14.0518 10.6477 13.8776C10.4735 13.7033 10.2576 13.6162 10 13.6162C9.74242 13.6162 9.52652 13.7033 9.35227 13.8776C9.17803 14.0518 9.09091 14.2677 9.09091 14.5253C9.09091 14.7829 9.17803 14.9988 9.35227 15.173C9.52652 15.3472 9.74242 15.4344 10 15.4344ZM9.09091 12.7071H10.9091V8.16164H9.09091V12.7071Z" fill="#CD0E0E"/>
</svg>
