<svg width="800" height="800" viewBox="0 0 800 800" fill="none" xmlns="http://www.w3.org/2000/svg">
<path d="M128 32V96H64V768H736V224H480V96H416V32H128ZM160 64H384V128H448V736H304V624H240V736H96V128H160V64ZM160 160V192H192V160H160ZM224 160V192H256V160H224ZM288 160V192H320V160H288ZM352 160V192H384V160H352ZM160 240V304H192V240H160ZM224 240V304H256V240H224ZM288 240V304H320V240H288ZM352 240V304H384V240H352ZM480 256H704V736H480V256ZM512 288V320H544V288H512ZM576 288V320H608V288H576ZM640 288V320H672V288H640ZM160 336V400H192V336H160ZM224 336V400H256V336H224ZM288 336V400H320V336H288ZM352 336V400H384V336H352ZM512 352V384H544V352H512ZM576 352V384H608V352H576ZM640 352V384H672V352H640ZM512 416V448H544V416H512ZM576 416V448H608V416H576ZM640 416V448H672V416H640ZM160 432V496H192V432H160ZM224 432V496H256V432H224ZM288 432V496H320V432H288ZM352 432V496H384V432H352ZM512 480V512H544V480H512ZM576 480V512H608V480H576ZM640 480V512H672V480H640ZM160 528V592H192V528H160ZM224 528V592H256V528H224ZM288 528V592H320V528H288ZM352 528V592H384V528H352ZM512 544V576H544V544H512ZM576 544V576H608V544H576ZM640 544V576H672V544H640ZM512 608V640H544V608H512ZM576 608V640H608V608H576ZM640 608V640H672V608H640ZM160 624V704H192V624H160ZM352 624V704H384V624H352ZM512 672V704H544V672H512ZM576 672V704H608V672H576ZM640 672V704H672V672H640Z" fill="#7449EB"/>
</svg>
