<svg width="800" height="150" viewBox="0 0 844 179" fill="none" xmlns="http://www.w3.org/2000/svg">
<path d="M34.1 26.3V60.3H79.9V85.3H34.1V120H93.9V146H0.1V0.299998H93.9V26.3H34.1ZM109.586 146V42.3H128.786C132.653 42.3 135.186 44.0333 136.386 47.5L138.086 53.1C139.819 51.3 141.619 49.6667 143.486 48.2C145.353 46.6667 147.353 45.3667 149.486 44.3C151.686 43.1667 154.019 42.3 156.486 41.7C159.019 41.0333 161.786 40.7 164.786 40.7C171.053 40.7 176.219 42.3333 180.286 45.6C184.419 48.8 187.553 53.1 189.686 58.5C191.419 55.3 193.519 52.5667 195.986 50.3C198.519 48.0333 201.219 46.2 204.086 44.8C207.019 43.4 210.086 42.3667 213.286 41.7C216.553 41.0333 219.786 40.7 222.986 40.7C228.919 40.7 234.186 41.6 238.786 43.4C243.386 45.1333 247.219 47.7 250.286 51.1C253.419 54.4333 255.786 58.5667 257.386 63.5C258.986 68.3667 259.786 73.9 259.786 80.1V146H228.786V80.1C228.786 69.3667 224.186 64 214.986 64C210.786 64 207.286 65.4 204.486 68.2C201.753 70.9333 200.386 74.9 200.386 80.1V146H169.386V80.1C169.386 74.1667 168.219 70 165.886 67.6C163.553 65.2 160.119 64 155.586 64C152.786 64 150.119 64.6333 147.586 65.9C145.119 67.1667 142.786 68.8667 140.586 71V146H109.586ZM310.703 117.8C313.036 120.333 315.57 122.133 318.303 123.2C321.036 124.267 323.903 124.8 326.903 124.8C329.77 124.8 332.403 124.233 334.803 123.1C337.203 121.967 339.27 120.167 341.003 117.7C342.803 115.167 344.203 111.9 345.203 107.9C346.203 103.9 346.703 99.0333 346.703 93.3C346.703 87.8333 346.303 83.2333 345.503 79.5C344.703 75.7667 343.57 72.7667 342.103 70.5C340.703 68.1667 339.003 66.5 337.003 65.5C335.003 64.5 332.77 64 330.303 64C325.77 64 322.036 64.8333 319.103 66.5C316.17 68.1667 313.37 70.6 310.703 73.8V117.8ZM308.803 55.1C312.87 50.7667 317.47 47.2333 322.603 44.5C327.803 41.7 333.97 40.3 341.103 40.3C346.503 40.3 351.503 41.5 356.103 43.9C360.703 46.3 364.67 49.7667 368.003 54.3C371.336 58.8333 373.936 64.4 375.803 71C377.736 77.5333 378.703 84.9667 378.703 93.3C378.703 101.1 377.603 108.3 375.403 114.9C373.27 121.5 370.236 127.233 366.303 132.1C362.436 136.967 357.77 140.767 352.303 143.5C346.903 146.233 340.903 147.6 334.303 147.6C328.903 147.6 324.37 146.833 320.703 145.3C317.036 143.767 313.703 141.7 310.703 139.1V178.9H279.703V42.3H298.903C302.77 42.3 305.303 44.0333 306.503 47.5L308.803 55.1ZM423.742 58.3C426.942 52.7 430.609 48.3 434.742 45.1C438.942 41.9 443.742 40.3 449.142 40.3C453.809 40.3 457.609 41.4 460.542 43.6L458.542 66.4C458.209 67.8667 457.642 68.8667 456.842 69.4C456.109 69.9333 455.076 70.2 453.742 70.2C453.209 70.2 452.509 70.1667 451.642 70.1C450.776 70.0333 449.876 69.9667 448.942 69.9C448.009 69.7667 447.042 69.6667 446.042 69.6C445.109 69.4667 444.242 69.4 443.442 69.4C438.909 69.4 435.276 70.6 432.542 73C429.876 75.4 427.609 78.7333 425.742 83V146H394.742V42.3H413.142C414.676 42.3 415.942 42.4333 416.942 42.7C418.009 42.9667 418.876 43.4 419.542 44C420.276 44.5333 420.809 45.2667 421.142 46.2C421.542 47.1333 421.876 48.2667 422.142 49.6L423.742 58.3ZM533.852 81.7C533.852 79.2333 533.518 76.8333 532.852 74.5C532.252 72.1667 531.218 70.1 529.752 68.3C528.352 66.4333 526.485 64.9333 524.152 63.8C521.818 62.6667 518.985 62.1 515.652 62.1C509.785 62.1 505.185 63.8 501.852 67.2C498.518 70.5333 496.318 75.3667 495.252 81.7H533.852ZM494.852 99.7C495.852 108.367 498.485 114.667 502.752 118.6C507.018 122.467 512.518 124.4 519.252 124.4C522.852 124.4 525.952 123.967 528.552 123.1C531.152 122.233 533.452 121.267 535.452 120.2C537.518 119.133 539.385 118.167 541.052 117.3C542.785 116.433 544.585 116 546.452 116C548.918 116 550.785 116.9 552.052 118.7L561.052 129.8C557.852 133.467 554.385 136.467 550.652 138.8C546.985 141.067 543.185 142.867 539.252 144.2C535.385 145.467 531.485 146.333 527.552 146.8C523.685 147.333 519.985 147.6 516.452 147.6C509.185 147.6 502.352 146.433 495.952 144.1C489.618 141.7 484.052 138.167 479.252 133.5C474.518 128.833 470.752 123.033 467.952 116.1C465.218 109.167 463.852 101.1 463.852 91.9C463.852 84.9667 465.018 78.4 467.352 72.2C469.752 66 473.152 60.5667 477.552 55.9C482.018 51.2333 487.385 47.5333 493.652 44.8C499.985 42.0667 507.118 40.7 515.052 40.7C521.918 40.7 528.185 41.7667 533.852 43.9C539.585 46.0333 544.485 49.1333 548.552 53.2C552.685 57.2667 555.885 62.2667 558.152 68.2C560.485 74.0667 561.652 80.7333 561.652 88.2C561.652 90.5333 561.552 92.4333 561.352 93.9C561.152 95.3667 560.785 96.5333 560.252 97.4C559.718 98.2667 558.985 98.8667 558.052 99.2C557.185 99.5333 556.052 99.7 554.652 99.7H494.852ZM643.064 65C642.264 66.2667 641.397 67.1667 640.464 67.7C639.597 68.2333 638.464 68.5 637.064 68.5C635.597 68.5 634.131 68.2 632.664 67.6C631.197 66.9333 629.597 66.2333 627.864 65.5C626.197 64.7667 624.297 64.1 622.164 63.5C620.031 62.8333 617.597 62.5 614.864 62.5C610.931 62.5 607.897 63.2667 605.764 64.8C603.697 66.2667 602.664 68.3333 602.664 71C602.664 72.9333 603.331 74.5333 604.664 75.8C606.064 77.0667 607.897 78.2 610.164 79.2C612.431 80.1333 614.997 81.0333 617.864 81.9C620.731 82.7667 623.664 83.7333 626.664 84.8C629.664 85.8667 632.597 87.1333 635.464 88.6C638.331 90 640.897 91.7667 643.164 93.9C645.431 95.9667 647.231 98.5 648.564 101.5C649.964 104.5 650.664 108.1 650.664 112.3C650.664 117.433 649.731 122.167 647.864 126.5C645.997 130.833 643.197 134.567 639.464 137.7C635.797 140.833 631.231 143.267 625.764 145C620.364 146.733 614.131 147.6 607.064 147.6C603.531 147.6 599.997 147.267 596.464 146.6C592.931 145.933 589.497 145.033 586.164 143.9C582.897 142.767 579.864 141.433 577.064 139.9C574.264 138.3 571.864 136.6 569.864 134.8L577.064 123.4C577.864 122.067 578.864 121.033 580.064 120.3C581.331 119.5 582.931 119.1 584.864 119.1C586.664 119.1 588.264 119.5 589.664 120.3C591.131 121.1 592.697 121.967 594.364 122.9C596.031 123.833 597.964 124.7 600.164 125.5C602.431 126.3 605.264 126.7 608.664 126.7C611.064 126.7 613.097 126.467 614.764 126C616.431 125.467 617.764 124.767 618.764 123.9C619.764 123.033 620.497 122.067 620.964 121C621.431 119.933 621.664 118.833 621.664 117.7C621.664 115.633 620.964 113.933 619.564 112.6C618.164 111.267 616.331 110.133 614.064 109.2C611.797 108.2 609.197 107.3 606.264 106.5C603.397 105.633 600.464 104.667 597.464 103.6C594.464 102.533 591.497 101.267 588.564 99.8C585.697 98.2667 583.131 96.3667 580.864 94.1C578.597 91.7667 576.764 88.9333 575.364 85.6C573.964 82.2667 573.264 78.2333 573.264 73.5C573.264 69.1 574.097 64.9333 575.764 61C577.497 57 580.064 53.5 583.464 50.5C586.864 47.5 591.131 45.1333 596.264 43.4C601.397 41.6 607.397 40.7 614.264 40.7C617.997 40.7 621.597 41.0333 625.064 41.7C628.597 42.3667 631.897 43.3 634.964 44.5C638.031 45.7 640.831 47.1333 643.364 48.8C645.897 50.4 648.131 52.1667 650.064 54.1L643.064 65ZM719.727 103.8C713.527 104.067 708.427 104.6 704.427 105.4C700.427 106.2 697.26 107.2 694.927 108.4C692.593 109.6 690.96 110.967 690.027 112.5C689.16 114.033 688.727 115.7 688.727 117.5C688.727 121.033 689.693 123.533 691.627 125C693.56 126.4 696.393 127.1 700.127 127.1C704.127 127.1 707.627 126.4 710.627 125C713.627 123.6 716.66 121.333 719.727 118.2V103.8ZM663.927 56.7C670.193 51.1667 677.127 47.0667 684.727 44.4C692.393 41.6667 700.593 40.3 709.327 40.3C715.593 40.3 721.227 41.3333 726.227 43.4C731.293 45.4 735.56 48.2333 739.027 51.9C742.56 55.5 745.26 59.8 747.127 64.8C748.993 69.8 749.927 75.2667 749.927 81.2V146H735.727C732.793 146 730.56 145.6 729.027 144.8C727.56 144 726.327 142.333 725.327 139.8L723.127 134.1C720.527 136.3 718.027 138.233 715.627 139.9C713.227 141.567 710.727 143 708.127 144.2C705.593 145.333 702.86 146.167 699.927 146.7C697.06 147.3 693.86 147.6 690.327 147.6C685.593 147.6 681.293 147 677.427 145.8C673.56 144.533 670.26 142.7 667.527 140.3C664.86 137.9 662.793 134.933 661.327 131.4C659.86 127.8 659.127 123.667 659.127 119C659.127 115.267 660.06 111.5 661.927 107.7C663.793 103.833 667.027 100.333 671.627 97.2C676.227 94 682.427 91.3333 690.227 89.2C698.027 87.0667 707.86 85.8667 719.727 85.6V81.2C719.727 75.1333 718.46 70.7667 715.927 68.1C713.46 65.3667 709.927 64 705.327 64C701.66 64 698.66 64.4 696.327 65.2C693.993 66 691.893 66.9 690.027 67.9C688.227 68.9 686.46 69.8 684.727 70.6C682.993 71.4 680.927 71.8 678.527 71.8C676.393 71.8 674.593 71.2667 673.127 70.2C671.66 69.1333 670.46 67.8667 669.527 66.4L663.927 56.7ZM835.642 65C834.842 66.2667 833.976 67.1667 833.042 67.7C832.176 68.2333 831.042 68.5 829.642 68.5C828.176 68.5 826.709 68.2 825.242 67.6C823.776 66.9333 822.176 66.2333 820.442 65.5C818.776 64.7667 816.876 64.1 814.742 63.5C812.609 62.8333 810.176 62.5 807.442 62.5C803.509 62.5 800.476 63.2667 798.342 64.8C796.276 66.2667 795.242 68.3333 795.242 71C795.242 72.9333 795.909 74.5333 797.242 75.8C798.642 77.0667 800.476 78.2 802.742 79.2C805.009 80.1333 807.576 81.0333 810.442 81.9C813.309 82.7667 816.242 83.7333 819.242 84.8C822.242 85.8667 825.176 87.1333 828.042 88.6C830.909 90 833.476 91.7667 835.742 93.9C838.009 95.9667 839.809 98.5 841.142 101.5C842.542 104.5 843.242 108.1 843.242 112.3C843.242 117.433 842.309 122.167 840.442 126.5C838.576 130.833 835.776 134.567 832.042 137.7C828.376 140.833 823.809 143.267 818.342 145C812.942 146.733 806.709 147.6 799.642 147.6C796.109 147.6 792.576 147.267 789.042 146.6C785.509 145.933 782.076 145.033 778.742 143.9C775.476 142.767 772.442 141.433 769.642 139.9C766.842 138.3 764.442 136.6 762.442 134.8L769.642 123.4C770.442 122.067 771.442 121.033 772.642 120.3C773.909 119.5 775.509 119.1 777.442 119.1C779.242 119.1 780.842 119.5 782.242 120.3C783.709 121.1 785.276 121.967 786.942 122.9C788.609 123.833 790.542 124.7 792.742 125.5C795.009 126.3 797.842 126.7 801.242 126.7C803.642 126.7 805.676 126.467 807.342 126C809.009 125.467 810.342 124.767 811.342 123.9C812.342 123.033 813.076 122.067 813.542 121C814.009 119.933 814.242 118.833 814.242 117.7C814.242 115.633 813.542 113.933 812.142 112.6C810.742 111.267 808.909 110.133 806.642 109.2C804.376 108.2 801.776 107.3 798.842 106.5C795.976 105.633 793.042 104.667 790.042 103.6C787.042 102.533 784.076 101.267 781.142 99.8C778.276 98.2667 775.709 96.3667 773.442 94.1C771.176 91.7667 769.342 88.9333 767.942 85.6C766.542 82.2667 765.842 78.2333 765.842 73.5C765.842 69.1 766.676 64.9333 768.342 61C770.076 57 772.642 53.5 776.042 50.5C779.442 47.5 783.709 45.1333 788.842 43.4C793.976 41.6 799.976 40.7 806.842 40.7C810.576 40.7 814.176 41.0333 817.642 41.7C821.176 42.3667 824.476 43.3 827.542 44.5C830.609 45.7 833.409 47.1333 835.942 48.8C838.476 50.4 840.709 52.1667 842.642 54.1L835.642 65Z" fill="url(#paint0_linear_2133_2002)" fill-opacity="0.4"/>
<defs>
<linearGradient id="paint0_linear_2133_2002" x1="611.412" y1="-51" x2="615.23" y2="318.049" gradientUnits="userSpaceOnUse">
<stop offset="0.215" stop-color="white"/>
<stop offset="0.2151" stop-color="#FEFEFE" stop-opacity="0.970484"/>
<stop offset="0.265" stop-color="white"/>
<stop offset="0.54"/>
<stop offset="0.6" stop-color="#040404"/>
<stop offset="1" stop-color="#D9D9D9" stop-opacity="0"/>
</linearGradient>
</defs>
</svg>
