<svg width="884" height="872" viewBox="0 0 884 872" fill="none" xmlns="http://www.w3.org/2000/svg">
<g filter="url(#filter0_d_2443_2157)">
<path d="M223.727 406.909C223.27 408.942 222.839 410.835 222.432 412.579C216.047 439.99 206.692 512.25 203.183 590.9M223.727 406.909C229.599 380.818 239.727 331.524 254.532 276.132M223.727 406.909C253.682 430.089 280.97 450.516 300.275 465.538C312.48 475.035 331.962 488.905 356.521 505.446M223.727 406.909C203.698 391.408 182.475 374.677 161.65 357.507M203.183 590.9C197.272 723.407 207.959 874.056 277.422 858.949C360.773 840.824 425.093 714.678 468.856 577.119M203.183 590.9C258.062 567.355 313.636 534.132 356.521 505.446M203.183 590.9C133.328 620.871 64.6014 635.165 24.6113 604.47C-32.0015 561.016 66.6551 446.704 161.65 357.507M254.532 276.132C259.251 258.475 264.446 240.199 270.129 221.856M254.532 276.132C228.814 297.189 195.464 325.757 161.65 357.507M254.532 276.132C277.783 257.094 294.796 244.195 300.275 240.634C301.142 240.07 302.377 239.245 303.957 238.176M356.521 505.446C388.701 483.92 413.735 464.947 425.966 454.534C438.79 443.615 473.234 417.93 516.41 383.844M356.521 505.446C387.396 526.241 426.297 551.257 468.856 577.119M161.65 357.507C69.6102 281.619 -14.6702 197.159 46.036 172.544C95.0795 152.656 186.391 183.012 270.129 221.856M270.129 221.856C303.88 112.927 354.873 1.66276 425.966 4.03735C473.827 5.63597 502.504 44.8047 517.353 102.591M270.129 221.856C281.59 227.173 292.909 232.649 303.957 238.176M303.957 238.176C326.37 223.024 418.317 159.099 517.353 102.591M303.957 238.176C368.528 270.478 423.889 304.555 444.534 319.041C455.542 326.765 482.995 343.858 519.036 367.186M517.353 102.591C535.76 174.216 532.92 274.445 519.036 367.186M517.353 102.591C641.456 31.7816 776.69 -27.3799 800.182 35.6748C831.315 119.233 652 275.852 529.141 373.746M519.036 367.186C518.199 372.768 517.323 378.324 516.41 383.844M519.036 367.186C522.334 369.322 525.704 371.509 529.141 373.746M529.141 373.746C524.825 377.186 520.577 380.553 516.41 383.844M529.141 373.746C658.677 458.077 881.85 613.208 875.883 710.389C870.452 798.836 640.05 681.143 468.856 577.119M516.41 383.844C513.137 403.622 509.379 422.95 505.237 441.466C495.359 485.638 483.214 531.992 468.856 577.119" stroke="#A098D3" stroke-width="7"/>
</g>
<g filter="url(#filter1_d_2443_2157)">
<path d="M343.652 518.46C410.703 518.46 465.058 466.112 465.058 401.538C465.058 336.963 410.703 284.615 343.652 284.615C276.601 284.615 222.246 336.963 222.246 401.538C222.246 466.112 276.601 518.46 343.652 518.46Z" fill="#A098D3"/>
</g>
<g filter="url(#filter2_f_2443_2157)">
<path d="M277.644 327.325C244.079 354.148 230.51 402.981 254.077 367.216C277.644 331.451 318.351 312.881 327.635 310.818C336.919 308.755 311.21 300.501 277.644 327.325Z" fill="white"/>
<path d="M277.644 327.325C244.079 354.148 230.51 402.981 254.077 367.216C277.644 331.451 318.351 312.881 327.635 310.818C336.919 308.755 311.21 300.501 277.644 327.325Z" stroke="white"/>
</g>
<g filter="url(#filter3_di_2443_2157)">
<path d="M200.107 621.628C218.645 621.628 233.673 607.155 233.673 589.302C233.673 571.449 218.645 556.976 200.107 556.976C181.57 556.976 166.542 571.449 166.542 589.302C166.542 607.155 181.57 621.628 200.107 621.628Z" fill="#A098D3"/>
</g>
<g filter="url(#filter4_di_2443_2157)">
<path d="M789.284 45.2669C801.117 45.2669 810.709 36.029 810.709 24.6334C810.709 13.2379 801.117 4 789.284 4C777.452 4 767.86 13.2379 767.86 24.6334C767.86 36.029 777.452 45.2669 789.284 45.2669Z" fill="#A098D3"/>
</g>
<g filter="url(#filter5_di_2443_2157)">
<path d="M330.798 86.5338C342.63 86.5338 352.222 77.2959 352.222 65.9003C352.222 54.5048 342.63 45.2669 330.798 45.2669C318.965 45.2669 309.373 54.5048 309.373 65.9003C309.373 77.2959 318.965 86.5338 330.798 86.5338Z" fill="#A098D3"/>
</g>
<g filter="url(#filter6_di_2443_2157)">
<path d="M819.279 631.257C831.111 631.257 840.703 622.019 840.703 610.623C840.703 599.228 831.111 589.99 819.279 589.99C807.446 589.99 797.854 599.228 797.854 610.623C797.854 622.019 807.446 631.257 819.279 631.257Z" fill="#A098D3"/>
</g>
<g filter="url(#filter7_di_2443_2157)">
<path d="M115.123 328.633C126.956 328.633 136.548 319.395 136.548 307.999C136.548 296.604 126.956 287.366 115.123 287.366C103.291 287.366 93.6985 296.604 93.6985 307.999C93.6985 319.395 103.291 328.633 115.123 328.633Z" fill="#A098D3"/>
</g>
<g filter="url(#filter8_di_2443_2157)">
<path d="M572.182 366.461C572.182 388.871 554.276 407.04 532.189 407.04C510.102 407.04 492.196 388.871 492.196 366.461C492.196 344.05 510.102 325.882 532.189 325.882C554.276 325.882 572.182 344.05 572.182 366.461Z" fill="#A098D3"/>
</g>
<path d="M195.108 385.031L376.503 518.46" stroke="#A098D3" stroke-width="7"/>
<defs>
<filter id="filter0_d_2443_2157" x="0.502441" y="0.499817" width="882.998" height="871" filterUnits="userSpaceOnUse" color-interpolation-filters="sRGB">
<feFlood flood-opacity="0" result="BackgroundImageFix"/>
<feColorMatrix in="SourceAlpha" type="matrix" values="0 0 0 0 0 0 0 0 0 0 0 0 0 0 0 0 0 0 127 0" result="hardAlpha"/>
<feOffset dy="4"/>
<feGaussianBlur stdDeviation="2"/>
<feComposite in2="hardAlpha" operator="out"/>
<feColorMatrix type="matrix" values="0 0 0 0 0 0 0 0 0 0 0 0 0 0 0 0 0 0 0.25 0"/>
<feBlend mode="normal" in2="BackgroundImageFix" result="effect1_dropShadow_2443_2157"/>
<feBlend mode="normal" in="SourceGraphic" in2="effect1_dropShadow_2443_2157" result="shape"/>
</filter>
<filter id="filter1_d_2443_2157" x="218.246" y="284.615" width="250.812" height="241.846" filterUnits="userSpaceOnUse" color-interpolation-filters="sRGB">
<feFlood flood-opacity="0" result="BackgroundImageFix"/>
<feColorMatrix in="SourceAlpha" type="matrix" values="0 0 0 0 0 0 0 0 0 0 0 0 0 0 0 0 0 0 127 0" result="hardAlpha"/>
<feOffset dy="4"/>
<feGaussianBlur stdDeviation="2"/>
<feComposite in2="hardAlpha" operator="out"/>
<feColorMatrix type="matrix" values="0 0 0 0 0 0 0 0 0 0 0 0 0 0 0 0 0 0 0.25 0"/>
<feBlend mode="normal" in2="BackgroundImageFix" result="effect1_dropShadow_2443_2157"/>
<feBlend mode="normal" in="SourceGraphic" in2="effect1_dropShadow_2443_2157" result="shape"/>
</filter>
<filter id="filter2_f_2443_2157" x="239.742" y="305.5" width="92.3102" height="76.8438" filterUnits="userSpaceOnUse" color-interpolation-filters="sRGB">
<feFlood flood-opacity="0" result="BackgroundImageFix"/>
<feBlend mode="normal" in="SourceGraphic" in2="BackgroundImageFix" result="shape"/>
<feGaussianBlur stdDeviation="1" result="effect1_foregroundBlur_2443_2157"/>
</filter>
<filter id="filter3_di_2443_2157" x="162.542" y="552.976" width="73.1304" height="74.6514" filterUnits="userSpaceOnUse" color-interpolation-filters="sRGB">
<feFlood flood-opacity="0" result="BackgroundImageFix"/>
<feColorMatrix in="SourceAlpha" type="matrix" values="0 0 0 0 0 0 0 0 0 0 0 0 0 0 0 0 0 0 127 0" result="hardAlpha"/>
<feOffset dy="4"/>
<feGaussianBlur stdDeviation="1"/>
<feComposite in2="hardAlpha" operator="out"/>
<feColorMatrix type="matrix" values="0 0 0 0 0 0 0 0 0 0 0 0 0 0 0 0 0 0 0.25 0"/>
<feBlend mode="normal" in2="BackgroundImageFix" result="effect1_dropShadow_2443_2157"/>
<feBlend mode="normal" in="SourceGraphic" in2="effect1_dropShadow_2443_2157" result="shape"/>
<feColorMatrix in="SourceAlpha" type="matrix" values="0 0 0 0 0 0 0 0 0 0 0 0 0 0 0 0 0 0 127 0" result="hardAlpha"/>
<feOffset dx="-6" dy="-6"/>
<feGaussianBlur stdDeviation="2"/>
<feComposite in2="hardAlpha" operator="arithmetic" k2="-1" k3="1"/>
<feColorMatrix type="matrix" values="0 0 0 0 0 0 0 0 0 0 0 0 0 0 0 0 0 0 0.25 0"/>
<feBlend mode="normal" in2="shape" result="effect2_innerShadow_2443_2157"/>
</filter>
<filter id="filter4_di_2443_2157" x="763.86" y="0" width="48.8492" height="51.2669" filterUnits="userSpaceOnUse" color-interpolation-filters="sRGB">
<feFlood flood-opacity="0" result="BackgroundImageFix"/>
<feColorMatrix in="SourceAlpha" type="matrix" values="0 0 0 0 0 0 0 0 0 0 0 0 0 0 0 0 0 0 127 0" result="hardAlpha"/>
<feOffset dy="4"/>
<feGaussianBlur stdDeviation="1"/>
<feComposite in2="hardAlpha" operator="out"/>
<feColorMatrix type="matrix" values="0 0 0 0 0 0 0 0 0 0 0 0 0 0 0 0 0 0 0.25 0"/>
<feBlend mode="normal" in2="BackgroundImageFix" result="effect1_dropShadow_2443_2157"/>
<feBlend mode="normal" in="SourceGraphic" in2="effect1_dropShadow_2443_2157" result="shape"/>
<feColorMatrix in="SourceAlpha" type="matrix" values="0 0 0 0 0 0 0 0 0 0 0 0 0 0 0 0 0 0 127 0" result="hardAlpha"/>
<feOffset dx="-6" dy="-6"/>
<feGaussianBlur stdDeviation="2"/>
<feComposite in2="hardAlpha" operator="arithmetic" k2="-1" k3="1"/>
<feColorMatrix type="matrix" values="0 0 0 0 0 0 0 0 0 0 0 0 0 0 0 0 0 0 0.25 0"/>
<feBlend mode="normal" in2="shape" result="effect2_innerShadow_2443_2157"/>
</filter>
<filter id="filter5_di_2443_2157" x="305.373" y="41.2669" width="48.8492" height="51.2669" filterUnits="userSpaceOnUse" color-interpolation-filters="sRGB">
<feFlood flood-opacity="0" result="BackgroundImageFix"/>
<feColorMatrix in="SourceAlpha" type="matrix" values="0 0 0 0 0 0 0 0 0 0 0 0 0 0 0 0 0 0 127 0" result="hardAlpha"/>
<feOffset dy="4"/>
<feGaussianBlur stdDeviation="1"/>
<feComposite in2="hardAlpha" operator="out"/>
<feColorMatrix type="matrix" values="0 0 0 0 0 0 0 0 0 0 0 0 0 0 0 0 0 0 0.25 0"/>
<feBlend mode="normal" in2="BackgroundImageFix" result="effect1_dropShadow_2443_2157"/>
<feBlend mode="normal" in="SourceGraphic" in2="effect1_dropShadow_2443_2157" result="shape"/>
<feColorMatrix in="SourceAlpha" type="matrix" values="0 0 0 0 0 0 0 0 0 0 0 0 0 0 0 0 0 0 127 0" result="hardAlpha"/>
<feOffset dx="-6" dy="-6"/>
<feGaussianBlur stdDeviation="2"/>
<feComposite in2="hardAlpha" operator="arithmetic" k2="-1" k3="1"/>
<feColorMatrix type="matrix" values="0 0 0 0 0 0 0 0 0 0 0 0 0 0 0 0 0 0 0.25 0"/>
<feBlend mode="normal" in2="shape" result="effect2_innerShadow_2443_2157"/>
</filter>
<filter id="filter6_di_2443_2157" x="793.854" y="585.99" width="48.8492" height="51.2668" filterUnits="userSpaceOnUse" color-interpolation-filters="sRGB">
<feFlood flood-opacity="0" result="BackgroundImageFix"/>
<feColorMatrix in="SourceAlpha" type="matrix" values="0 0 0 0 0 0 0 0 0 0 0 0 0 0 0 0 0 0 127 0" result="hardAlpha"/>
<feOffset dy="4"/>
<feGaussianBlur stdDeviation="1"/>
<feComposite in2="hardAlpha" operator="out"/>
<feColorMatrix type="matrix" values="0 0 0 0 0 0 0 0 0 0 0 0 0 0 0 0 0 0 0.25 0"/>
<feBlend mode="normal" in2="BackgroundImageFix" result="effect1_dropShadow_2443_2157"/>
<feBlend mode="normal" in="SourceGraphic" in2="effect1_dropShadow_2443_2157" result="shape"/>
<feColorMatrix in="SourceAlpha" type="matrix" values="0 0 0 0 0 0 0 0 0 0 0 0 0 0 0 0 0 0 127 0" result="hardAlpha"/>
<feOffset dx="-6" dy="-6"/>
<feGaussianBlur stdDeviation="2"/>
<feComposite in2="hardAlpha" operator="arithmetic" k2="-1" k3="1"/>
<feColorMatrix type="matrix" values="0 0 0 0 0 0 0 0 0 0 0 0 0 0 0 0 0 0 0.25 0"/>
<feBlend mode="normal" in2="shape" result="effect2_innerShadow_2443_2157"/>
</filter>
<filter id="filter7_di_2443_2157" x="89.6985" y="283.366" width="48.8494" height="51.2668" filterUnits="userSpaceOnUse" color-interpolation-filters="sRGB">
<feFlood flood-opacity="0" result="BackgroundImageFix"/>
<feColorMatrix in="SourceAlpha" type="matrix" values="0 0 0 0 0 0 0 0 0 0 0 0 0 0 0 0 0 0 127 0" result="hardAlpha"/>
<feOffset dy="4"/>
<feGaussianBlur stdDeviation="1"/>
<feComposite in2="hardAlpha" operator="out"/>
<feColorMatrix type="matrix" values="0 0 0 0 0 0 0 0 0 0 0 0 0 0 0 0 0 0 0.25 0"/>
<feBlend mode="normal" in2="BackgroundImageFix" result="effect1_dropShadow_2443_2157"/>
<feBlend mode="normal" in="SourceGraphic" in2="effect1_dropShadow_2443_2157" result="shape"/>
<feColorMatrix in="SourceAlpha" type="matrix" values="0 0 0 0 0 0 0 0 0 0 0 0 0 0 0 0 0 0 127 0" result="hardAlpha"/>
<feOffset dx="-6" dy="-6"/>
<feGaussianBlur stdDeviation="2"/>
<feComposite in2="hardAlpha" operator="arithmetic" k2="-1" k3="1"/>
<feColorMatrix type="matrix" values="0 0 0 0 0 0 0 0 0 0 0 0 0 0 0 0 0 0 0.25 0"/>
<feBlend mode="normal" in2="shape" result="effect2_innerShadow_2443_2157"/>
</filter>
<filter id="filter8_di_2443_2157" x="488.196" y="321.882" width="85.9852" height="91.1582" filterUnits="userSpaceOnUse" color-interpolation-filters="sRGB">
<feFlood flood-opacity="0" result="BackgroundImageFix"/>
<feColorMatrix in="SourceAlpha" type="matrix" values="0 0 0 0 0 0 0 0 0 0 0 0 0 0 0 0 0 0 127 0" result="hardAlpha"/>
<feOffset dy="4"/>
<feGaussianBlur stdDeviation="1"/>
<feComposite in2="hardAlpha" operator="out"/>
<feColorMatrix type="matrix" values="0 0 0 0 0 0 0 0 0 0 0 0 0 0 0 0 0 0 0.25 0"/>
<feBlend mode="normal" in2="BackgroundImageFix" result="effect1_dropShadow_2443_2157"/>
<feBlend mode="normal" in="SourceGraphic" in2="effect1_dropShadow_2443_2157" result="shape"/>
<feColorMatrix in="SourceAlpha" type="matrix" values="0 0 0 0 0 0 0 0 0 0 0 0 0 0 0 0 0 0 127 0" result="hardAlpha"/>
<feOffset dx="-6" dy="-6"/>
<feGaussianBlur stdDeviation="2"/>
<feComposite in2="hardAlpha" operator="arithmetic" k2="-1" k3="1"/>
<feColorMatrix type="matrix" values="0 0 0 0 0 0 0 0 0 0 0 0 0 0 0 0 0 0 0.25 0"/>
<feBlend mode="normal" in2="shape" result="effect2_innerShadow_2443_2157"/>
</filter>
</defs>
</svg>
