<svg width="50" height="53" viewBox="0 0 50 53" fill="none" xmlns="http://www.w3.org/2000/svg">
<path d="M5.55556 5.54306H5.54306V5.55556V19.4444V19.4569H5.55556H44.4444H44.4569V19.4444V5.55556V5.54306H44.4444H5.55556ZM5.55556 33.3208H5.54306V33.3333V47.2222V47.2347H5.55556H44.4444H44.4569V47.2222V33.3333V33.3208H44.4444H5.55556ZM9.55745 9.55745C10.3653 8.74964 11.3459 8.34583 12.5 8.34583C13.6541 8.34583 14.6347 8.74964 15.4426 9.55745C16.2504 10.3653 16.6542 11.3459 16.6542 12.5C16.6542 13.6541 16.2504 14.6347 15.4426 15.4426C14.6347 16.2504 13.6541 16.6542 12.5 16.6542C11.3459 16.6542 10.3653 16.2504 9.55745 15.4426C8.74964 14.6347 8.34583 13.6541 8.34583 12.5C8.34583 11.3459 8.74964 10.3653 9.55745 9.55745ZM9.55745 37.3352C10.3653 36.5274 11.3459 36.1236 12.5 36.1236C13.6541 36.1236 14.6347 36.5274 15.4426 37.3352C16.2504 38.143 16.6542 39.1236 16.6542 40.2778C16.6542 41.4319 16.2504 42.4125 15.4426 43.2203C14.6347 44.0281 13.6541 44.4319 12.5 44.4319C11.3459 44.4319 10.3653 44.0281 9.55745 43.2203C8.74964 42.4125 8.34583 41.4319 8.34583 40.2778C8.34583 39.1236 8.74964 38.143 9.55745 37.3352ZM2.77778 0.0125H47.2222C48.0061 0.0125 48.6626 0.277502 49.1926 0.80745C49.7225 1.3374 49.9875 1.99389 49.9875 2.77778V22.2222C49.9875 23.0061 49.7225 23.6626 49.1926 24.1926C48.6626 24.7225 48.0061 24.9875 47.2222 24.9875H2.77778C1.99389 24.9875 1.3374 24.7225 0.80745 24.1926C0.277502 23.6626 0.0125 23.0061 0.0125 22.2222V2.77778C0.0125 1.99389 0.277502 1.3374 0.80745 0.80745C1.3374 0.277502 1.99389 0.0125 2.77778 0.0125ZM2.77778 27.7903H47.2222C48.0061 27.7903 48.6626 28.0553 49.1926 28.5852C49.7225 29.1152 49.9875 29.7717 49.9875 30.5556V50C49.9875 50.7839 49.7225 51.4404 49.1926 51.9703C48.6626 52.5003 48.0061 52.7653 47.2222 52.7653H2.77778C1.99389 52.7653 1.3374 52.5003 0.80745 51.9703C0.277502 51.4404 0.0125 50.7839 0.0125 50V30.5556C0.0125 29.7717 0.277502 29.1152 0.80745 28.5852C1.3374 28.0553 1.99389 27.7903 2.77778 27.7903Z" fill="#7449EB" stroke="white" stroke-width="0.025"/>
</svg>
