<svg width="41" height="31" viewBox="0 0 41 31" fill="none" xmlns="http://www.w3.org/2000/svg">
<path d="M1.01606 6.67782L1.01536 6.6773C0.701841 6.44649 0.5 6.11434 0.5 5.76406V5.16667C0.5 2.53207 2.37631 0.5 4.55556 0.5H36.4444C38.6237 0.5 40.5 2.53207 40.5 5.16667V5.76406C40.5 6.11434 40.2982 6.44649 39.9846 6.67729L39.9839 6.67782C38.9097 7.47157 38.2222 8.81934 38.2222 10.3333C38.2222 11.8473 38.9097 13.1951 39.9839 13.9888L39.9846 13.9894C40.2982 14.2202 40.5 14.5523 40.5 14.9026V20.1667H0.5V14.9026C0.5 14.5523 0.701841 14.2202 1.01536 13.9894L1.01606 13.9888C2.09027 13.1951 2.77778 11.8473 2.77778 10.3333C2.77778 8.81934 2.09027 7.47157 1.01606 6.67782ZM0.5 28.4167V23.75H40.5V28.4167C40.5 29.6304 39.6487 30.5 38.7222 30.5H35.8056V28.4167C35.8056 27.4911 35.1265 26.625 34.1667 26.625C33.2068 26.625 32.5278 27.4911 32.5278 28.4167V30.5H26.6944V28.4167C26.6944 27.4911 26.0154 26.625 25.0556 26.625C24.0957 26.625 23.4167 27.4911 23.4167 28.4167V30.5H17.5833V28.4167C17.5833 27.4911 16.9043 26.625 15.9444 26.625C14.9846 26.625 14.3056 27.4911 14.3056 28.4167V30.5H8.47222V28.4167C8.47222 27.4911 7.79315 26.625 6.83333 26.625C5.87351 26.625 5.19444 27.4911 5.19444 28.4167V30.5H2.27778C1.35131 30.5 0.5 29.6304 0.5 28.4167ZM14.1667 12.9167V7.75C14.1667 6.10595 12.9822 4.66667 11.3889 4.66667C9.79556 4.66667 8.61111 6.10595 8.61111 7.75V12.9167C8.61111 14.5607 9.79556 16 11.3889 16C12.9822 16 14.1667 14.5607 14.1667 12.9167ZM23.2778 12.9167V7.75C23.2778 6.10595 22.0933 4.66667 20.5 4.66667C18.9067 4.66667 17.7222 6.10595 17.7222 7.75V12.9167C17.7222 14.5607 18.9067 16 20.5 16C22.0933 16 23.2778 14.5607 23.2778 12.9167ZM32.3889 12.9167V7.75C32.3889 6.10595 31.2044 4.66667 29.6111 4.66667C28.0178 4.66667 26.8333 6.10595 26.8333 7.75V12.9167C26.8333 14.5607 28.0178 16 29.6111 16C31.2044 16 32.3889 14.5607 32.3889 12.9167Z" stroke="white"/>
</svg>
