<svg width="50" height="53" viewBox="0 0 50 53" fill="none" xmlns="http://www.w3.org/2000/svg">
<path d="M12.5 8.33333C11.3426 8.33333 10.3588 8.73843 9.54861 9.54861C8.73843 10.3588 8.33333 11.3426 8.33333 12.5C8.33333 13.6574 8.73843 14.6412 9.54861 15.4514C10.3588 16.2616 11.3426 16.6667 12.5 16.6667C13.6574 16.6667 14.6412 16.2616 15.4514 15.4514C16.2616 14.6412 16.6667 13.6574 16.6667 12.5C16.6667 11.3426 16.2616 10.3588 15.4514 9.54861C14.6412 8.73843 13.6574 8.33333 12.5 8.33333ZM12.5 36.1111C11.3426 36.1111 10.3588 36.5162 9.54861 37.3264C8.73843 38.1366 8.33333 39.1204 8.33333 40.2778C8.33333 41.4352 8.73843 42.419 9.54861 43.2292C10.3588 44.0394 11.3426 44.4444 12.5 44.4444C13.6574 44.4444 14.6412 44.0394 15.4514 43.2292C16.2616 42.419 16.6667 41.4352 16.6667 40.2778C16.6667 39.1204 16.2616 38.1366 15.4514 37.3264C14.6412 36.5162 13.6574 36.1111 12.5 36.1111ZM2.77778 0H47.2222C48.0093 0 48.669 0.266204 49.2014 0.798611C49.7338 1.33102 50 1.99074 50 2.77778V22.2222C50 23.0093 49.7338 23.669 49.2014 24.2014C48.669 24.7338 48.0093 25 47.2222 25H2.77778C1.99074 25 1.33102 24.7338 0.798611 24.2014C0.266204 23.669 0 23.0093 0 22.2222V2.77778C0 1.99074 0.266204 1.33102 0.798611 0.798611C1.33102 0.266204 1.99074 0 2.77778 0ZM5.55556 5.55556V19.4444H44.4444V5.55556H5.55556ZM2.77778 27.7778H47.2222C48.0093 27.7778 48.669 28.044 49.2014 28.5764C49.7338 29.1088 50 29.7685 50 30.5556V50C50 50.787 49.7338 51.4468 49.2014 51.9792C48.669 52.5116 48.0093 52.7778 47.2222 52.7778H2.77778C1.99074 52.7778 1.33102 52.5116 0.798611 51.9792C0.266204 51.4468 0 50.787 0 50V30.5556C0 29.7685 0.266204 29.1088 0.798611 28.5764C1.33102 28.044 1.99074 27.7778 2.77778 27.7778ZM5.55556 33.3333V47.2222H44.4444V33.3333H5.55556Z" fill="white"/>
</svg>
