<svg width="50" height="51" viewBox="0 0 50 51" fill="none" xmlns="http://www.w3.org/2000/svg">
<path d="M11.1111 39.5493H16.6667V20.1048H11.1111V39.5493ZM22.2222 39.5493H27.7778V11.7715H22.2222V39.5493ZM33.3333 39.5493H38.8889V28.4382H33.3333V39.5493ZM5.55556 50.6604C4.02778 50.6604 2.71991 50.1164 1.63194 49.0285C0.543981 47.9405 0 46.6326 0 45.1048V6.21596C0 4.68818 0.543981 3.38031 1.63194 2.29234C2.71991 1.20438 4.02778 0.6604 5.55556 0.6604H44.4444C45.9722 0.6604 47.2801 1.20438 48.3681 2.29234C49.456 3.38031 50 4.68818 50 6.21596V45.1048C50 46.6326 49.456 47.9405 48.3681 49.0285C47.2801 50.1164 45.9722 50.6604 44.4444 50.6604H5.55556ZM5.55556 45.1048H44.4444V6.21596H5.55556V45.1048Z" fill="#7449EB"/>
</svg>
