<svg width="50" height="51" viewBox="0 0 50 51" fill="none" xmlns="http://www.w3.org/2000/svg">
<path d="M9.625 38.4104C11.75 36.7854 14.125 35.5042 16.75 34.5667C19.375 33.6292 22.125 33.1604 25 33.1604C27.875 33.1604 30.625 33.6292 33.25 34.5667C35.875 35.5042 38.25 36.7854 40.375 38.4104C41.8333 36.7021 42.9688 34.7646 43.7812 32.5979C44.5938 30.4312 45 28.1187 45 25.6604C45 20.1187 43.0521 15.4 39.1562 11.5042C35.2604 7.60832 30.5417 5.6604 25 5.6604C19.4583 5.6604 14.7396 7.60832 10.8438 11.5042C6.94792 15.4 5 20.1187 5 25.6604C5 28.1187 5.40625 30.4312 6.21875 32.5979C7.03125 34.7646 8.16667 36.7021 9.625 38.4104ZM25 28.1604C22.5417 28.1604 20.4688 27.3167 18.7812 25.6292C17.0938 23.9417 16.25 21.8687 16.25 19.4104C16.25 16.9521 17.0938 14.8792 18.7812 13.1917C20.4688 11.5042 22.5417 10.6604 25 10.6604C27.4583 10.6604 29.5312 11.5042 31.2188 13.1917C32.9062 14.8792 33.75 16.9521 33.75 19.4104C33.75 21.8687 32.9062 23.9417 31.2188 25.6292C29.5312 27.3167 27.4583 28.1604 25 28.1604ZM25 50.6604C21.5417 50.6604 18.2917 50.0042 15.25 48.6917C12.2083 47.3792 9.5625 45.5979 7.3125 43.3479C5.0625 41.0979 3.28125 38.4521 1.96875 35.4104C0.65625 32.3687 0 29.1187 0 25.6604C0 22.2021 0.65625 18.9521 1.96875 15.9104C3.28125 12.8687 5.0625 10.2229 7.3125 7.9729C9.5625 5.7229 12.2083 3.94165 15.25 2.62915C18.2917 1.31665 21.5417 0.6604 25 0.6604C28.4583 0.6604 31.7083 1.31665 34.75 2.62915C37.7917 3.94165 40.4375 5.7229 42.6875 7.9729C44.9375 10.2229 46.7188 12.8687 48.0312 15.9104C49.3438 18.9521 50 22.2021 50 25.6604C50 29.1187 49.3438 32.3687 48.0312 35.4104C46.7188 38.4521 44.9375 41.0979 42.6875 43.3479C40.4375 45.5979 37.7917 47.3792 34.75 48.6917C31.7083 50.0042 28.4583 50.6604 25 50.6604ZM25 45.6604C27.2083 45.6604 29.2917 45.3375 31.25 44.6917C33.2083 44.0458 35 43.1187 36.625 41.9104C35 40.7021 33.2083 39.775 31.25 39.1292C29.2917 38.4833 27.2083 38.1604 25 38.1604C22.7917 38.1604 20.7083 38.4833 18.75 39.1292C16.7917 39.775 15 40.7021 13.375 41.9104C15 43.1187 16.7917 44.0458 18.75 44.6917C20.7083 45.3375 22.7917 45.6604 25 45.6604ZM25 23.1604C26.0833 23.1604 26.9792 22.8062 27.6875 22.0979C28.3958 21.3896 28.75 20.4937 28.75 19.4104C28.75 18.3271 28.3958 17.4312 27.6875 16.7229C26.9792 16.0146 26.0833 15.6604 25 15.6604C23.9167 15.6604 23.0208 16.0146 22.3125 16.7229C21.6042 17.4312 21.25 18.3271 21.25 19.4104C21.25 20.4937 21.6042 21.3896 22.3125 22.0979C23.0208 22.8062 23.9167 23.1604 25 23.1604Z" fill="#7449EB"/>
</svg>
